<svg xmlns="http://www.w3.org/2000/svg" enable-background="new 0 0 24 24" viewBox="0 0 24 24"><path fill="#d8d8ff" d="M22.89 11.53 20.4 8.2A3.012 3.012 0 0 0 18 7h-2v10a1 1 0 0 1-1 1h7a1.003 1.003 0 0 0 1-1v-5a1.116 1.116 0 0 0-.11-.47z"/><path fill="#A9E4E0" d="M13 3H4a3.003 3.003 0 0 0-3 3v11a1 1 0 0 0 1 1h13a1 1 0 0 0 1-1V6a3.003 3.003 0 0 0-3-3z"/><path fill="#028F85" d="M22.89 11.53 20.4 8.2A3.012 3.012 0 0 0 18 7h-2v6h7v-1a1.116 1.116 0 0 0-.11-.47zM10.5 9.5h-1v-1a1 1 0 1 0-2 0v1h-1a1 1 0 1 0 0 2h1v1a1 1 0 1 0 2 0v-1h1a1 1 0 1 0 0-2zM6 21a3 3 0 1 1 0-6 3 3 0 0 1 0 6zm12 0a3 3 0 1 1 0-6 3 3 0 0 1 0 6z"/></svg>