<svg xmlns="http://www.w3.org/2000/svg" width="64" height="64" viewBox="0 0 16.933 16.933"><g transform="translate(0 -280.067)"><path fill="#ffc861" d="m 15.19226,287.54121 h -2.98535 c -0.11724,0 -0.22886,0.0234 -0.33021,0.0662 -0.10135,0.0427 -0.19221,0.10488 -0.26872,0.18139 -0.0765,0.0765 -0.13866,0.16737 -0.18138,0.26872 -0.0427,0.10134 -0.0661,0.21296 -0.0661,0.33021 v 1.56528 c 0,0.11724 0.0234,0.22886 0.0661,0.33021 0.0427,0.10135 0.10488,0.19221 0.18138,0.26872 0.0765,0.0765 0.16737,0.13866 0.26872,0.18138 0.10135,0.0427 0.21389,0.0515 0.33021,0.0661 h 4.19716 l -0.45527,-1.22421 -0.0279,-0.0744 z"/><path fill="#55a1ff" d="m 9.30115,285.60593 v 5.02915 2.71922 c 0,0.7337 -10e-4,1.32446 -10e-4,1.32446 h 5.78 c 0.7337,0 1.32395,-0.59076 1.32395,-1.32446 v -2.55489 h -4.19716 c -0.11724,0 -0.22886,-0.0234 -0.33021,-0.0662 -0.10135,-0.0427 -0.19221,-0.10487 -0.26872,-0.18138 -0.0765,-0.0765 -0.13866,-0.16737 -0.18138,-0.26872 -0.0427,-0.10135 -0.0661,-0.21296 -0.0661,-0.33021 v -1.56528 c 0,-0.11725 0.0234,-0.22886 0.0661,-0.33021 0.0427,-0.10135 0.10488,-0.19221 0.18138,-0.26872 0.0765,-0.0765 0.16737,-0.13866 0.26872,-0.18138 0.10135,-0.0427 0.21477,-0.0866 0.33021,-0.0662 h 2.98535 l -0.0284,-0.076 -0.19896,-0.53485 c -0.25578,-0.68768 -0.59564,-1.23567 -1.32395,-1.32447 z"/><path fill="#d9eaff" d="m 1.85346,282.41184 h 6.12449 c 0.7337,0 1.32965,0.5907 1.32318,1.32437 l -1e-5,7.95718 v 1.66097 c 0,0.7337 -10e-4,1.32437 -10e-4,1.32437 H 4.82408 1.85363 c -0.7337,0 -1.32437,-0.59067 -1.32437,-1.32437 v -5.71273 -3.90542 c 0,-0.7337 0.59067,-1.32437 1.32437,-1.32437 z"/><path fill="#ef6356" d="m 4.30249,280.66205 c -0.69802,0 -1.25987,0.56185 -1.25987,1.25987 v 0.48989 h 3.60494 v -0.48989 c 0,-0.69802 -0.56185,-1.25987 -1.25987,-1.25987 z"/><path fill="none" d="m 4.74102,286.03899 c -0.32104,0 -0.57929,0.25825 -0.57929,0.57929 v 0.47698 H 3.68476 c -0.32105,0 -0.5793,0.25824 -0.5793,0.57929 v 0.34571 c 0,0.32105 0.25825,0.5793 0.5793,0.5793 h 0.47697 v 0.47697 c 0,0.32105 0.25825,0.57929 0.57929,0.57929 h 0.34572 c 0.32104,0 0.57929,-0.25824 0.57929,-0.57929 v -0.47697 H 6.143 c 0.32105,0 0.5793,-0.25825 0.5793,-0.5793 v -0.34571 c 0,-0.32105 -0.25825,-0.57929 -0.5793,-0.57929 H 5.66603 v -0.47698 c 0,-0.32104 -0.25825,-0.57929 -0.57929,-0.57929 z"/><path fill="#bfdcff" d="M 18.642578 45.792969 C 18.220921 45.773745 17.783954 45.780503 17.332031 45.818359 C 13.728289 46.120344 11.352387 48.135896 10.113281 49.982422 C 9.432961 50.996205 9.4879494 51.294904 9.2636719 51.998047 L 9.1914062 51.998047 A 2.000485 2.000485 0 0 0 7.6132812 55.226562 L 12.105469 55.226562 A 2.0001999 2.0001999 0 0 0 12.498047 54.34375 C 12.498047 54.34375 12.682465 53.333193 13.435547 52.210938 C 14.188629 51.088682 15.299054 50.00281 17.664062 49.804688 C 20.017428 49.607396 21.216453 50.495097 22.101562 51.488281 C 22.986672 52.481466 23.3125 53.472656 23.3125 53.472656 A 2.0001999 2.0001999 0 0 0 23.326172 53.511719 C 23.326172 53.511719 23.517343 54.29372 23.566406 55.226562 L 27.646484 55.226562 C 27.600322 53.529303 27.132125 52.291762 27.121094 52.263672 C 27.116558 52.248554 26.56779 50.480408 25.091797 48.824219 C 23.794979 47.369034 21.59418 45.927537 18.642578 45.792969 z " color="#000" font-family="sans-serif" font-weight="400" overflow="visible" transform="matrix(.26458 0 0 .26458 0 280.067)" white-space="normal" style="line-height:normal;font-variant-ligatures:normal;font-variant-position:normal;font-variant-caps:normal;font-variant-numeric:normal;font-variant-alternates:normal;font-feature-settings:normal;text-indent:0;text-align:start;text-decoration-line:none;text-decoration-style:solid;text-decoration-color:#000;text-transform:none;text-orientation:mixed;shape-padding:0;isolation:auto;mix-blend-mode:normal"/><path fill="#d85750" d="m 20.623047,5.4394531 c -1.786631,0.00301 -2.673534,2.1683866 -1.402344,3.4238281 H 25.125 V 7.0117188 c 0,-0.554621 -0.112402,-1.0780846 -0.285156,-1.5722657 z" color="#000" font-family="sans-serif" font-weight="400" overflow="visible" transform="matrix(.26458 0 0 .26458 0 280.067)" white-space="normal" style="line-height:normal;font-variant-ligatures:normal;font-variant-position:normal;font-variant-caps:normal;font-variant-numeric:normal;font-variant-alternates:normal;font-feature-settings:normal;text-indent:0;text-align:start;text-decoration-line:none;text-decoration-style:solid;text-decoration-color:#000;text-transform:none;text-orientation:mixed;shape-padding:0;isolation:auto;mix-blend-mode:normal"/><path fill="#488bff" d="M 35.154297 20.935547 L 35.154297 39.943359 L 35.154297 50.220703 C 35.154297 52.993742 35.150391 55.226562 35.150391 55.226562 L 38.378906 55.226562 L 38.378906 20.935547 L 35.154297 20.935547 z " color="#000" font-family="sans-serif" font-weight="400" overflow="visible" transform="matrix(.26458 0 0 .26458 0 280.067)" white-space="normal" style="line-height:normal;font-variant-ligatures:normal;font-variant-position:normal;font-variant-caps:normal;font-variant-numeric:normal;font-variant-alternates:normal;font-feature-settings:normal;text-indent:0;text-align:start;text-decoration-line:none;text-decoration-style:solid;text-decoration-color:#000;text-transform:none;text-orientation:mixed;shape-padding:0;isolation:auto;mix-blend-mode:normal"/><path fill="#666" d="m 6.46266,294.71219 c 0,0.93468 -0.75771,1.69239 -1.69239,1.69239 -0.93468,0 -1.69238,-0.75771 -1.69238,-1.69239 0,-0.93468 0.75771,-1.69238 1.69238,-1.69238 0.93468,0 1.69239,0.7577 1.69239,1.69238 z"/><path fill="#ffab61" d="M 44.033203 34.40625 C 43.626043 34.411821 43.250411 34.540349 42.9375 34.753906 L 42.9375 37.365234 C 42.9375 37.808346 43.026114 38.230226 43.1875 38.613281 C 43.348886 38.996336 43.583913 39.339735 43.873047 39.628906 C 44.162181 39.91804 44.505617 40.152992 44.888672 40.314453 C 45.271727 40.475839 45.697084 40.509272 46.136719 40.564453 L 62 40.564453 L 60.8125 37.373047 L 46.412109 37.373047 C 46.21444 37.373047 46.075728 37.225962 46.0625 36.984375 L 46.0625 36.435547 C 46.079508 35.307433 45.161298 34.389318 44.033203 34.40625 z " color="#000" font-family="sans-serif" font-weight="400" overflow="visible" transform="matrix(.26458 0 0 .26458 0 280.067)" white-space="normal" style="line-height:normal;font-variant-ligatures:normal;font-variant-position:normal;font-variant-caps:normal;font-variant-numeric:normal;font-variant-alternates:normal;font-feature-settings:normal;text-indent:0;text-align:start;text-decoration-line:none;text-decoration-style:solid;text-decoration-color:#000;text-transform:none;text-orientation:mixed;shape-padding:0;isolation:auto;mix-blend-mode:normal"/><path fill="#ef6356" d="m 4.7423606,286.73687 c -0.32104,0 -0.57929,0.25825 -0.57929,0.57929 v 0.47698 h -0.47697 c -0.32105,0 -0.5793,0.25824 -0.5793,0.57929 v 0.34571 c 0,0.32105 0.25825,0.5793 0.5793,0.5793 h 0.47697 v 0.47697 c 0,0.32105 0.25825,0.57929 0.57929,0.57929 h 0.34572 c 0.32104,0 0.57929,-0.25824 0.57929,-0.57929 v -0.47697 h 0.47697 c 0.321051,0 0.579301,-0.25825 0.579301,-0.5793 v -0.34571 c 0,-0.32105 -0.25825,-0.57929 -0.579301,-0.57929 h -0.47697 v -0.47698 c 0,-0.32104 -0.25825,-0.57929 -0.57929,-0.57929 z"/><path fill="#d85750" d="m 5.3663556,288.46725 a 0.52921956,0.52921956 0 0 0 -0.527099,0.52916 v 0.5271 h -0.676445 v 0.25115 c 0,0.32105 0.258253,0.57929 0.579293,0.57929 h 0.346232 c 0.32104,0 0.578776,-0.25824 0.578776,-0.57929 v -0.47697 h 0.476974 c 0.321051,0 0.579809,-0.25825 0.579809,-0.5793 v -0.25114 z"/><path fill="#488bff" d="M 50.226562 46.490234 A 2.0001999 2.0001999 0 0 0 49.679688 50.417969 C 49.679688 50.417969 50.404018 50.623747 51.222656 51.458984 C 51.915267 52.165508 52.620863 53.228867 52.6875 55.226562 L 56.677734 55.226562 C 56.573192 52.203543 55.389643 49.995978 54.080078 48.660156 C 52.562779 47.112402 50.816406 46.585938 50.816406 46.585938 A 2.0001999 2.0001999 0 0 0 50.226562 46.490234 z " color="#000" font-family="sans-serif" font-weight="400" overflow="visible" transform="matrix(.26458 0 0 .26458 0 280.067)" white-space="normal" style="line-height:normal;font-variant-ligatures:normal;font-variant-position:normal;font-variant-caps:normal;font-variant-numeric:normal;font-variant-alternates:normal;font-feature-settings:normal;text-indent:0;text-align:start;text-decoration-line:none;text-decoration-style:solid;text-decoration-color:#000;text-transform:none;text-orientation:mixed;shape-padding:0;isolation:auto;mix-blend-mode:normal"/><path fill="#666" d="m 14.1571,294.71219 c 0,0.93468 -0.7577,1.69239 -1.69238,1.69239 -0.93468,0 -1.69239,-0.75771 -1.69239,-1.69239 0,-0.93468 0.75771,-1.69238 1.69239,-1.69238 0.93467,0 1.69238,0.7577 1.69238,1.69238 z"/></g></svg>