<?xml version="1.0" encoding="UTF-8"?>
<svg width="123px" height="112px" viewBox="0 0 123 112" version="1.1" xmlns="http://www.w3.org/2000/svg" xmlns:xlink="http://www.w3.org/1999/xlink">
    <title>anouncement</title>
    <g id="Page-1" stroke="none" stroke-width="1" fill="none" fill-rule="evenodd">
        <g id="Apple-TV" transform="translate(-558, -256)" fill-rule="nonzero">
            <g id="anouncement" transform="translate(558, 256)">
                <path d="M100.828668,36.8439462 C110.4504,39.2493808 111.920398,41.253911 109.514957,49.5392981 C107.109527,57.8246831 91.2069253,52.5934144 91.2069253,52.5934144 L100.828668,36.8439462 Z" id="Path" fill="#EF6356"></path>
                <g id="Group" transform="translate(-0, 0)">
                    <path d="M60.7975293,57.4803335 C60.7975293,57.4803335 50.5298102,72.3606288 51.2842093,75.0668652 C52.0386064,77.7731057 61.7540313,75.9283556 66.7265806,73.466919 C71.6991269,71.0054823 74.1828559,57.9702481 72.3813156,54.4266645 C70.5797733,50.8830799 60.7975293,57.4803335 60.7975293,57.4803335 L60.7975293,57.4803335 Z" id="Path" fill="#EF6356"></path>
                    <path d="M69.7431211,55.1496373 C69.7431211,55.1496373 61.8555052,92.9433914 60.7043874,95.4563619 C59.5532706,97.9693224 51.2091602,98.8505673 52.6447091,104.461988 C54.080257,110.0734 62.5301958,114.426951 71.1143736,110.132553 C79.6985494,105.838144 76.5566539,101.17984 78.9425325,95.6199424 C81.3284101,90.0600451 92.1887896,49.4074377 92.1887896,49.4074377 L69.7431211,55.1496373 Z" id="Path" fill="#55A1FF"></path>
                    <path d="M70.4719382,59.7193586 C70.4719382,59.7193586 78.6751614,62.8194261 82.210316,63.5219654 C83.9039541,63.8585392 85.9264651,64.5336808 87.7944634,65.0494633 C88.6573426,62.0046522 89.4576952,59.1667175 90.1264554,56.7844534 C84.022747,57.492642 70.4719382,59.7193586 70.4719382,59.7193586 Z" id="Path" fill="#488BFF"></path>
                    <path d="M107.827885,81.9728521 C107.827885,81.9728521 100.558592,78.0163487 98.4890387,74.7137513 C93.972667,70.5321158 94.7681522,61.2311234 88.9569068,60.957491 C87.3544858,64.5675507 87.0201037,66.6649677 86.6010497,67.3426059 C86.1819966,68.0202422 76.5206252,65.0745153 73.4524999,64.9015179 C70.3843736,64.7285225 57.2329262,61.285004 54.6327272,63.0096554 C52.0325361,64.7343068 52.8081476,68.936197 54.8163663,70.5014004 C56.8245849,72.0666029 58.1031125,73.0195423 58.1031125,73.0195423 C58.1031125,73.0195423 56.2418134,77.3565583 56.5741857,79.3527594 C56.9065581,81.3489614 57.8181575,82.7168334 57.8181575,82.7168334 C57.8181575,82.7168334 56.2158794,85.4150758 56.6836637,88.2245439 C57.1514499,91.034019 59.0858154,92.1556153 59.0858154,92.1556153 C59.0858154,92.1556153 57.7916476,94.4226451 59.1343296,97.0104467 C60.4770005,99.5982682 76.748481,104.319795 84.3880224,104.567466 C92.0275588,104.815126 102.550725,103.214927 106.173233,103.979496 C107.383818,104.234986 108.934334,104.749104 110.524434,105.335214 C120.327336,109.009496 127.712365,83.3381863 116.886096,82.2868057 C112.185106,82.0776836 107.827885,81.9728521 107.827885,81.9728521 L107.827885,81.9728521 Z" id="Path" fill="#FEAC7C"></path>
                    <path d="M75.5149251,26.3063983 C75.5149251,26.3063983 91.983844,28.8067503 99.6171642,31.9366442 C107.250484,35.0665321 106.244124,54.052716 96.9096869,58.3633592 C87.5752345,62.6740064 67.6738007,59.2703941 67.6738007,59.2703941 L75.5149251,26.3063983 Z" id="Path" fill="#55A1FF"></path>
                    <path d="M75.5149251,26.3063983 C77.7046411,33.5509158 78.1841449,56.7347594 71.1073744,60.0028118 C64.030603,63.2708643 13.7543297,69.9715906 10.0892636,67.6149255 C1.86945933,62.3295295 -1.95482623,46.485761 0.983042986,27.4617966 C3.9209108,8.43783116 11.226425,-2.20089474 18.8593472,0.383460214 C26.4922704,2.96781617 60.4778224,13.7670129 75.5149251,26.3063983 Z" id="Path" fill="#FFC861"></path>
                    <path d="M13.8872629,4.99117199 C8.10948854,11.7872129 3.34529841,24.6584767 3.98575707,47.4774718 C4.34393638,60.2390637 13.4897912,65.0825913 16.7035432,63.1031363 C19.9172951,61.1236822 27.5382697,47.0657049 25.8173628,29.0373588 C24.096457,11.0090137 17.5820724,0.47796295 13.8872629,4.99117199 Z" id="Path" fill="#EF6356"></path>
                    <path d="M25.2860716,24.6719679 C23.5260886,24.7711913 21.8331431,25.0376212 20.4243311,25.5064358 C15.3855885,27.1831896 11.6963432,31.1178609 12.5421377,37.793009 C13.2699462,43.5369786 18.9512968,46.487471 24.3379034,48.0026632 C25.720435,42.626807 26.4963578,36.1423721 25.8180332,29.0362139 C25.6738381,27.5256024 25.4931003,26.0728644 25.2860716,24.6719679 L25.2860716,24.6719679 Z" id="Path" fill="#FFFFFF"></path>
                    <path d="M95.9297337,37.4723134 C87.0012909,36.3415541 80.7973874,36.0541684 81.9899083,38.8893195 C83.1824251,41.7244695 95.7973995,41.7365561 97.8847607,40.1888456 C99.9721119,38.641141 98.7725649,37.5605369 95.9297337,37.4723134 L95.9297337,37.4723134 Z M95.5467694,46.7559488 C86.6183286,45.6251886 80.4144241,45.3378028 81.6069449,48.1729539 C82.7994628,51.008104 95.4144351,51.0201915 97.5017963,49.472481 C99.5891375,47.9247775 98.3896005,46.8441723 95.5467694,46.7559488 L95.5467694,46.7559488 Z" id="Shape" fill="#FFFFFF"></path>
                </g>
            </g>
        </g>
    </g>
</svg>