<svg xmlns="http://www.w3.org/2000/svg" width="64" height="64" viewBox="0 0 16.933 16.933"><g transform="translate(0 -280.067)"><path fill="#d9eaff" d="M 2 22.457031 L 2 54.441406 C 2 58.629125 5.3708747 62 9.5585938 62 L 54.441406 62 C 58.629125 62 62 58.629125 62 54.441406 L 62 22.457031 L 2 22.457031 z " transform="matrix(.26458 0 0 .26458 0 280.067)"/><path fill="#ef6356" d="M 2 22.457031 L 62 22.457031 L 62 15.697266 C 62 11.509547 58.629125 8.1386719 54.441406 8.1386719 L 9.5585938 8.1386719 C 5.3708747 8.1386719 2 11.509547 2 15.697266 L 2 22.457031 z " transform="matrix(.26458 0 0 .26458 0 280.067)"/><path fill="#55a1ff" fill-opacity=".98" d="m 4.9444014,289.10641 a 1.0914062,1.0914062 0 0 1 -1.0914062,1.09141 1.0914062,1.0914062 0 0 1 -1.0914063,-1.09141 1.0914062,1.0914062 0 0 1 1.0914063,-1.0914 1.0914062,1.0914062 0 0 1 1.0914062,1.0914 z"/><path fill="#666" d="M4.9444014 293.37283a1.0914062 1.0914062 0 0 1-1.0914062 1.09141 1.0914062 1.0914062 0 0 1-1.0914063-1.09141 1.0914062 1.0914062 0 0 1 1.0914063-1.0914 1.0914062 1.0914062 0 0 1 1.0914062 1.0914zM9.5415357 289.10641a1.0914062 1.0914062 0 0 1-1.0914062 1.09141 1.0914062 1.0914062 0 0 1-1.0914062-1.09141 1.0914062 1.0914062 0 0 1 1.0914062-1.0914 1.0914062 1.0914062 0 0 1 1.0914062 1.0914zM9.5415357 293.37283a1.0914062 1.0914062 0 0 1-1.0914062 1.09141 1.0914062 1.0914062 0 0 1-1.0914062-1.09141 1.0914062 1.0914062 0 0 1 1.0914062-1.0914 1.0914062 1.0914062 0 0 1 1.0914062 1.0914zM14.171744 289.10641a1.0914062 1.0914062 0 0 1-1.091406 1.09141 1.0914062 1.0914062 0 0 1-1.091407-1.09141 1.0914062 1.0914062 0 0 1 1.091407-1.0914 1.0914062 1.0914062 0 0 1 1.091406 1.0914zM14.171744 293.37283a1.0914062 1.0914062 0 0 1-1.091406 1.09141 1.0914062 1.0914062 0 0 1-1.091407-1.09141 1.0914062 1.0914062 0 0 1 1.091407-1.0914 1.0914062 1.0914062 0 0 1 1.091406 1.0914z"/><path fill="#c2e1ff" d="M 2 22.457031 L 2 25.960938 L 62 25.960938 L 62 22.457031 L 2 22.457031 z " color="#000" font-family="sans-serif" font-weight="400" overflow="visible" transform="matrix(.26458 0 0 .26458 0 280.067)" white-space="normal" style="line-height:normal;font-variant-ligatures:normal;font-variant-position:normal;font-variant-caps:normal;font-variant-numeric:normal;font-variant-alternates:normal;font-feature-settings:normal;text-indent:0;text-align:start;text-decoration-line:none;text-decoration-style:solid;text-decoration-color:#000;text-transform:none;text-orientation:mixed;shape-padding:0;isolation:auto;mix-blend-mode:normal"/><path fill="#d85750" d="M3.6199979 283.8411a.52929498.52929498 0 0 0 .3451987.93017h.8655802a.52929498.52929498 0 0 0 .3787883-.8971c-.06943.0176-.1409713.0295-.2160074.0295H3.9419422c-.1141058 0-.2221167-.0232-.3219443-.0625zM13.322248 283.83851c-.102118.0414-.2134.0651-.330729.0651h-1.051615c-.07164 0-.140132-.0108-.206706-.0269a.52929498.52929498 0 0 0 .382406.89452h.86558a.52929498.52929498 0 0 0 .341064-.93276z" color="#000" font-family="sans-serif" font-weight="400" overflow="visible" white-space="normal" style="line-height:normal;font-variant-ligatures:normal;font-variant-position:normal;font-variant-caps:normal;font-variant-numeric:normal;font-variant-alternates:normal;font-feature-settings:normal;text-indent:0;text-align:start;text-decoration-line:none;text-decoration-style:solid;text-decoration-color:#000;text-transform:none;text-orientation:mixed;shape-padding:0;isolation:auto;mix-blend-mode:normal"/><path fill="#666" d="M3.9419911 280.59583H4.993385c.4861173 0 .877468.39135.877468.87746v1.55302c0 .48612-.3913507.87747-.877468.87747H3.941991c-.4861172 0-.877468-.39135-.877468-.87747v-1.55302c0-.48611.3913508-.87746.8774681-.87746zM11.940032 280.59583h1.051394c.486117 0 .877468.39135.877468.87746v1.55302c0 .48612-.391351.87747-.877468.87747h-1.051394c-.486117 0-.877468-.39135-.877468-.87747v-1.55302c0-.48611.391351-.87746.877468-.87746z"/></g></svg>