<svg xmlns="http://www.w3.org/2000/svg" width="128" height="128" viewBox="0 0 33.867 33.867"><path fill="#00a1ff" d="M30.153 10.376a2.64 2.64 0 0 1 2.646 2.646v14.685a2.64 2.64 0 0 1-2.646 2.646h-1.152l-1.007 1.536c-.804 1.226-1.88 1.226-2.684 0l-1.008-1.536H15.47a2.64 2.64 0 0 1-2.646-2.646V13.022a2.64 2.64 0 0 1 2.646-2.646z" paint-order="markers fill stroke"/><path fill="#daeeff" d="M3.704 1.058a2.64 2.64 0 0 0-2.646 2.646V18.39a2.64 2.64 0 0 0 2.646 2.645h1.152l1.008 1.537c.804 1.226 1.88 1.226 2.683 0l1.008-1.537h12.538a2.64 2.64 0 0 0 2.646-2.645V3.704a2.64 2.64 0 0 0-2.646-2.646z" paint-order="markers fill stroke"/><path fill="#ff005d" d="M12.627 5.75c-.733 0-1.231.595-1.323 1.322l-.234 1.853-1.852.198c-.73.079-1.323.59-1.323 1.323v.41c0 .732.597 1.221 1.323 1.322l1.852.257.198 1.852c.078.73.59 1.323 1.323 1.323h.615c.733 0 1.214-.598 1.323-1.323l.198-1.852 1.852-.257c.726-.1 1.323-.59 1.323-1.323v-.409c0-.733-.594-1.244-1.323-1.323l-1.852-.198-.234-1.853c-.092-.727-.59-1.322-1.323-1.322z" paint-order="markers fill stroke"/></svg>