<?xml version="1.0" encoding="UTF-8"?>
<svg width="21px" height="21px" viewBox="0 0 21 21" version="1.1" xmlns="http://www.w3.org/2000/svg" xmlns:xlink="http://www.w3.org/1999/xlink">
    <title>doctor_alt</title>
    <g id="Page-1" stroke="none" stroke-width="1" fill="none" fill-rule="evenodd">
        <g id="Apple-TV" transform="translate(-753, -441)" fill-rule="nonzero">
            <g id="doctor_alt" transform="translate(753.5601, 441)">
                <path d="M15.9378538,6.9990578 L3.94285381,7.0450578 L3.66585381,3.7200578 C3.4803768,2.14639013 4.55072983,0.699836928 6.10985381,0.417057797 L6.89885381,0.274057797 C8.91106573,-0.0913525989 10.9726419,-0.0913525989 12.9848538,0.274057797 L13.7708538,0.417057797 C15.3291448,0.700282607 16.3988212,2.14607527 16.2138538,3.7190578 L15.9378538,6.9990578 Z" id="Path" fill="#028F85"></path>
                <path d="M3.94885381,7.0440578 C4.04413256,10.293384 6.71208607,12.8745377 9.96278595,12.8623744 C13.2134858,12.8501249 15.8619799,10.2490079 15.9328538,6.9990578 L3.94885381,7.0440578 Z" id="Path" fill="#78D5CE"></path>
                <path d="M15.1378538,12.3200578 L10.6478538,16.8100578 C10.4602856,16.9978348 10.2057631,17.1033445 9.94035381,17.1033445 C9.67494456,17.1033445 9.42042207,16.9978348 9.23285381,16.8100578 L4.74185381,12.3200578 C2.08971281,13.9261876 0.338416593,16.6773793 0.00585381046,19.7600578 C-0.0248171875,20.0423874 0.0660003419,20.324442 0.255642553,20.535834 C0.445284765,20.7472259 0.715863122,20.8680578 0.99985381,20.8680578 L18.8798538,20.8680578 C19.1638445,20.8680578 19.4344229,20.7472259 19.6240651,20.535834 C19.8137073,20.324442 19.9045248,20.0423874 19.8738538,19.7600578 C19.541291,16.6773793 17.7899948,13.9261876 15.1378538,12.3200578 L15.1378538,12.3200578 Z" id="Path" fill="#028F85"></path>
                <path d="M13.6298538,11.5890578 C11.4590565,13.2770806 8.41965108,13.2770806 6.24885381,11.5890578 C5.72700247,11.7898486 5.22290371,12.0340371 4.74185381,12.3190578 L9.23285381,16.8110578 C9.62335366,17.2014397 10.256354,17.2014397 10.6468538,16.8110578 L15.1378538,12.3200578 C14.6568354,12.0346978 14.1527361,11.7901745 13.6308538,11.5890578 L13.6298538,11.5890578 Z" id="Path" fill="#A9E4E0"></path>
            </g>
        </g>
    </g>
</svg>