<svg xmlns="http://www.w3.org/2000/svg" enable-background="new 0 0 24 24" viewBox="0 0 24 24"><path fill="#A9E4E0" d="M11 19.9c-.7 0-1.4-.3-2-.8l-5.4-5.4c-2.2-2.2-2.2-5.8 0-8 2-2 5.1-2.2 7.3-.6 2.6-1.8 6.1-1.2 7.9 1.3 1.6 2.3 1.4 5.4-.6 7.3L13 19.1c-.6.5-1.3.8-2 .8z"/><path fill="#028F85" d="M16.5 14.4c-.3 0-.6-.1-.8-.3L13 10.9l-1.2 1.2c-.2.2-.4.3-.7.3H9c-.6 0-1-.4-1-1s.4-1 1-1h1.6l1.7-1.7c.2-.2.5-.3.7-.3.3 0 .5.1.7.3l2.8 3.2 1.2-1.2c.2-.2.4-.3.7-.3H21c.6 0 1 .4 1 1s-.4 1-1 1h-2.1l-1.7 1.7c-.2.2-.4.3-.7.3z"/></svg>