<?xml version="1.0" encoding="UTF-8"?>
<svg width="20px" height="20px" viewBox="0 0 20 20" version="1.1" xmlns="http://www.w3.org/2000/svg" xmlns:xlink="http://www.w3.org/1999/xlink">
    <title>history</title>
    <g id="Page-1" stroke="none" stroke-width="1" fill="none" fill-rule="evenodd">
        <g id="Apple-TV" transform="translate(-787, -474)" fill-rule="nonzero">
            <g id="history" transform="translate(787, 474)">
                <path d="M10.0000368,0 C7.38023955,0.0067579601 4.86734874,1.03960634 3.00003682,2.87714 L3.00003682,1 C3.00003682,0.44771525 2.55232161,0 2.00003682,0 C1.44775211,0 1.00003682,0.44771525 1.00003682,1 L1.00003682,5.5 C1.00003682,5.76523763 1.10530256,6.01963163 1.29285389,6.20718297 C1.48040523,6.3947343 1.73479923,6.50006899 2.00003682,6.5 L6.50003682,6.5 C7.05232161,6.5 7.50003682,6.05228475 7.50003682,5.5 C7.50003682,4.94771525 7.05232161,4.5 6.50003682,4.5 L4.21847686,4.5 C6.72934201,1.86079862 10.7072315,1.25354898 13.8911666,3.02340362 C17.0751016,4.79325825 18.6592604,8.49228487 17.7432285,12.0180065 C16.8271966,15.5437282 13.6428123,18.0038205 10.0000368,18 C9.44775211,18 9.00003682,18.4477153 9.00003682,19 C9.00003682,19.5522847 9.44775211,20 10.0000368,20 C15.5228844,20 20.0000368,15.5228475 20.0000368,10 C20.0000368,4.4771525 15.5228844,0 10.0000368,0 Z" id="Path" fill="#E0E0E0"></path>
                <path d="M12.0000368,11 L10.0000368,11 C9.73479923,11.000069 9.48040523,10.8947343 9.29285389,10.707183 C9.10530256,10.5196316 8.99996787,10.2652376 9.00003682,10 L9.00003682,7 C9.00003682,6.44771525 9.44775211,6 10.0000368,6 C10.5523216,6 11.0000368,6.44771525 11.0000368,7 L11.0000368,9 L12.0000368,9 C12.5523216,9 13.0000368,9.44771525 13.0000368,10 C13.0000368,10.5522847 12.5523216,11 12.0000368,11 Z" id="Path" fill="#E0E0E0"></path>
                <path d="M10.0000369,2 C7.81226231,2.00859079 5.72325556,2.91189662 4.21847686,4.5 L6.50003686,4.5 C7.0523216,4.5 7.50003683,4.94771526 7.50003683,5.5 C7.50003683,6.05228474 7.0523216,6.5 6.50003686,6.5 L2.00003686,6.5 C1.4986656,6.4964501 1.07930585,6.11821711 1.02420686,5.61987 C-0.498492502,8.71592899 -0.313479127,12.3789747 1.51342711,15.3058515 C3.34033335,18.2327284 6.54980046,20.007962 10.0000369,20.0000267 C9.44775211,20.0000267 9.00003686,19.5522847 9.00003686,19 C9.00003686,18.4477153 9.44775211,18 10.0000369,18 C14.4183148,18 18.0000367,14.4182779 18.0000367,10 C18.0000367,5.58172207 14.4183148,2 10.0000369,2 Z M12.0000368,11 L10.0000368,11 C9.73479923,11.000069 9.48040523,10.8947343 9.29285389,10.707183 C9.10530256,10.5196316 8.99996787,10.2652376 9.00003682,10 L9.00003682,7 C9.00003682,6.44771525 9.44775211,6 10.0000368,6 C10.5523216,6 11.0000368,6.44771525 11.0000368,7 L11.0000368,9 L12.0000368,9 C12.5523216,9 13.0000368,9.44771525 13.0000368,10 C13.0000368,10.5522847 12.5523216,11 12.0000368,11 Z" id="Shape" fill="#BDBDBD"></path>
            </g>
        </g>
    </g>
</svg>