<?xml version="1.0" encoding="UTF-8"?>
<svg width="18px" height="20px" viewBox="0 0 18 20" version="1.1" xmlns="http://www.w3.org/2000/svg" xmlns:xlink="http://www.w3.org/1999/xlink">
    <title>home</title>
    <g id="Page-1" stroke="none" stroke-width="1" fill="none" fill-rule="evenodd">
        <g id="Apple-TV" transform="translate(-724, -474)" fill-rule="nonzero">
            <g id="home" transform="translate(724, 474)">
                <path d="M15,19.9957715 L3,19.9957715 C1.34383127,19.9941178 0.00165374396,18.6519402 0,16.9957715 L0,8.24577146 C0,7.38117365 0.372698894,6.55854141 1.02300005,5.98877146 L7.02400005,0.738771459 C8.15719598,-0.246257153 9.84280413,-0.246257153 10.9760001,0.738771459 L16.9760001,5.98877146 C17.6266727,6.55835744 18,7.38101541 18,8.24577146 L18,16.9957715 C17.9983464,18.6519402 16.6561688,19.9941178 15,19.9957715 Z" id="Path" fill="#BDBDBD"></path>
                <path d="M13.0000001,19.9957715 L5.00000005,19.9957715 L5.00000005,12.9957715 C5.00000005,11.3389172 6.3431458,9.99577146 8.00000005,9.99577146 L10.0000001,9.99577146 C11.6568543,9.99577146 13.0000001,11.3389172 13.0000001,12.9957715 L13.0000001,19.9957715 Z" id="Path" fill="#E0E0E0"></path>
            </g>
        </g>
    </g>
</svg>