<?xml version="1.0" encoding="UTF-8"?>
<svg width="21px" height="21px" viewBox="0 0 21 21" version="1.1" xmlns="http://www.w3.org/2000/svg" xmlns:xlink="http://www.w3.org/1999/xlink">
    <title>hospital</title>
    <g id="Page-1" stroke="none" stroke-width="1" fill="none" fill-rule="evenodd">
        <g id="Apple-TV" transform="translate(-690, -473)" fill-rule="nonzero">
            <g id="hospital" transform="translate(690, 473)">
                <path d="M11,13 L10,13 C9.44771525,13 9,12.5522847 9,12 C9,11.4477153 9.44771525,11 10,11 L11,11 C11.5522847,11 12,11.4477153 12,12 C12,12.5522847 11.5522847,13 11,13 Z M11,17 L10,17 C9.44771525,17 9,16.5522847 9,16 C9,15.4477153 9.44771525,15 10,15 L11,15 C11.5522847,15 12,15.4477153 12,16 C12,16.5522847 11.5522847,17 11,17 Z M6,13 L5,13 C4.44771525,13 4,12.5522847 4,12 C4,11.4477153 4.44771525,11 5,11 L6,11 C6.55228475,11 7,11.4477153 7,12 C7,12.5522847 6.55228475,13 6,13 Z M6,17 L5,17 C4.44771525,17 4,16.5522847 4,16 C4,15.4477153 4.44771525,15 5,15 L6,15 C6.55228475,15 7,15.4477153 7,16 C7,16.5522847 6.55228475,17 6,17 Z M16,13 L15,13 C14.4477153,13 14,12.5522847 14,12 C14,11.4477153 14.4477153,11 15,11 L16,11 C16.5522847,11 17,11.4477153 17,12 C17,12.5522847 16.5522847,13 16,13 Z M16,17 L15,17 C14.4477153,17 14,16.5522847 14,16 C14,15.4477153 14.4477153,15 15,15 L16,15 C16.5522847,15 17,15.4477153 17,16 C17,16.5522847 16.5522847,17 16,17 Z" id="Shape" fill="#BDBDBD"></path>
                <path d="M12,5.5 L11.5,5.5 L11.5,5 C11.5,4.44771525 11.0522847,4 10.5,4 C9.94771525,4 9.5,4.44771525 9.5,5 L9.5,5.5 L9,5.5 C8.44771525,5.5 8,5.94771525 8,6.5 C8,7.05228475 8.44771525,7.5 9,7.5 L9.5,7.5 L9.5,8 C9.5,8.55228475 9.94771525,9 10.5,9 C11.0522847,9 11.5,8.55228475 11.5,8 L11.5,7.5 L12,7.5 C12.5522847,7.5 13,7.05228475 13,6.5 C13,5.94771525 12.5522847,5.5 12,5.5 Z" id="Path" fill="#BDBDBD"></path>
                <path d="M20,5 L17,5 L17,1 C17,0.44771525 16.5522847,0 16,0 L5,0 C4.44771525,0 4,0.44771525 4,1 L4,5 L1,5 C0.44771525,5 0,5.44771525 0,6 L0,20 C0,20.5522847 0.44771525,21 1,21 L20,21 C20.5522847,21 21,20.5522847 21,20 L21,6 C21,5.44771525 20.5522847,5 20,5 Z M6,17 L5,17 C4.44771525,17 4,16.5522847 4,16 C4,15.4477153 4.44771525,15 5,15 L6,15 C6.55228475,15 7,15.4477153 7,16 C7,16.5522847 6.55228475,17 6,17 Z M6,13 L5,13 C4.44771525,13 4,12.5522847 4,12 C4,11.4477153 4.44771525,11 5,11 L6,11 C6.55228475,11 7,11.4477153 7,12 C7,12.5522847 6.55228475,13 6,13 Z M11,17 L10,17 C9.44771525,17 9,16.5522847 9,16 C9,15.4477153 9.44771525,15 10,15 L11,15 C11.5522847,15 12,15.4477153 12,16 C12,16.5522847 11.5522847,17 11,17 Z M11,13 L10,13 C9.44771525,13 9,12.5522847 9,12 C9,11.4477153 9.44771525,11 10,11 L11,11 C11.5522847,11 12,11.4477153 12,12 C12,12.5522847 11.5522847,13 11,13 Z M12,7.5 L11.5,7.5 L11.5,8 C11.5,8.55228475 11.0522847,9 10.5,9 C9.94771525,9 9.5,8.55228475 9.5,8 L9.5,7.5 L9,7.5 C8.44771525,7.5 8,7.05228475 8,6.5 C8,5.94771525 8.44771525,5.5 9,5.5 L9.5,5.5 L9.5,5 C9.5,4.44771525 9.94771525,4 10.5,4 C11.0522847,4 11.5,4.44771525 11.5,5 L11.5,5.5 L12,5.5 C12.5522847,5.5 13,5.94771525 13,6.5 C13,7.05228475 12.5522847,7.5 12,7.5 Z M16,17 L15,17 C14.4477153,17 14,16.5522847 14,16 C14,15.4477153 14.4477153,15 15,15 L16,15 C16.5522847,15 17,15.4477153 17,16 C17,16.5522847 16.5522847,17 16,17 Z M16,13 L15,13 C14.4477153,13 14,12.5522847 14,12 C14,11.4477153 14.4477153,11 15,11 L16,11 C16.5522847,11 17,11.4477153 17,12 C17,12.5522847 16.5522847,13 16,13 Z" id="Shape" fill="#E0E0E0"></path>
            </g>
        </g>
    </g>
</svg>