<?xml version="1.0" encoding="UTF-8"?>
<svg width="17px" height="17px" viewBox="0 0 17 17" version="1.1" xmlns="http://www.w3.org/2000/svg" xmlns:xlink="http://www.w3.org/1999/xlink">
    <title>consultation</title>
    <g id="Page-1" stroke="none" stroke-width="1" fill="none" fill-rule="evenodd">
        <g id="Apple-TV" transform="translate(-440, -371)" fill-rule="nonzero">
            <g id="consultation" transform="translate(440.5289, 371.5292)">
                <path d="M14.4331903,4.62238997 C14.781557,4.62160071 15.1158837,4.75963797 15.3622167,5.005971 C15.6085497,5.25230403 15.746587,5.58663073 15.7457977,5.93499734 L15.7457977,13.2198006 C15.746587,13.5681672 15.6085497,13.9024939 15.3622167,14.1488269 C15.1158837,14.3951599 14.781557,14.5331972 14.4331903,14.5324046 L13.8617165,14.5324046 L13.362173,15.2943697 C12.9633319,15.9025528 12.4295594,15.9025528 12.0307183,15.2943697 L11.5306787,14.5324046 L7.14937925,14.5324046 C6.80101264,14.5331972 6.46668594,14.3951599 6.22035291,14.1488269 C5.97401988,13.9024939 5.83598262,13.5681672 5.83677188,13.2198006 L5.83677188,5.93499734 C5.83598262,5.58663073 5.97401988,5.25230403 6.22035291,5.005971 C6.46668594,4.75963797 6.80101264,4.62160071 7.14937925,4.62238997 L14.4331903,4.62238997 Z" id="Path" fill="#55A1FF"></path>
                <path d="M1.31260737,0 C0.964240761,-0.000789251199 0.629914063,0.137248004 0.383581033,0.383581033 C0.137248004,0.629914063 -0.000789251199,0.964240761 0,1.31260737 L0,8.59790669 C-0.0006571298,8.94618742 0.137438453,9.28038639 0.383757108,9.52661196 C0.630075762,9.77283752 0.964326909,9.91080677 1.31260737,9.91001459 L1.88408121,9.91001459 L2.38412082,10.6724758 C2.78296194,11.2806589 3.31673438,11.2806589 3.71507943,10.6724758 L4.21511904,9.91001459 L10.4348578,9.91001459 C10.7831382,9.91080677 11.1173894,9.77283752 11.363708,9.52661196 C11.6100267,9.28038639 11.7481223,8.94618742 11.7474651,8.59790669 L11.7474651,1.31260737 C11.7482544,0.964240761 11.6102171,0.629914063 11.3638841,0.383581033 C11.1175511,0.137248004 10.7832244,-0.000789251199 10.4348578,0 L1.31260737,0 Z" id="Path" fill="#D9EAFF"></path>
                <path d="M5.73904927,2.32756872 C5.3754292,2.32756872 5.12838582,2.62273099 5.08274729,2.98337464 L4.96666666,3.90259428 L4.04794309,4.00081635 C3.68581123,4.04000596 3.39164111,4.29349826 3.39164111,4.65711833 L3.39164111,4.86050746 C3.39164111,5.22363146 3.68779552,5.4662102 4.04794309,5.51631338 L4.96666666,5.64380363 L5.06488873,6.5625272 C5.10358227,6.92465906 5.35757064,7.21882919 5.72119072,7.21882919 L6.02627441,7.21882919 C6.38989448,7.21882919 6.62850465,6.92217871 6.6825764,6.5625272 L6.78079846,5.64380363 L7.69952203,5.51631338 C8.05966961,5.46670627 8.35582402,5.22363146 8.35582402,4.86001139 L8.35582402,4.65711833 C8.35582402,4.29349826 8.06115782,4.04000596 7.69952203,4.00081635 L6.78079846,3.90259428 L6.66471784,2.98337464 C6.6190793,2.62273099 6.37203592,2.32756872 6.00841585,2.32756872 L5.73904927,2.32756872 Z" id="Path" fill="#EF6356"></path>
            </g>
        </g>
    </g>
</svg>