<svg xmlns="http://www.w3.org/2000/svg" width="64" height="64" viewBox="0 0 16.933 16.933"><path fill="#d9eaff" d="M9.803 4.918A3.823 3.823 0 0 1 5.98 8.741a3.823 3.823 0 0 1-3.823-3.823A3.823 3.823 0 0 1 5.98 1.096a3.823 3.823 0 0 1 3.823 3.822z"/><path fill="#bfdcff" d="M2.446 284.844a.529.529 0 0 0-.286.101l-.003.04a3.823 3.823 0 0 0 7.64.198.534.534 0 0 0-.857.308c-.503 1.52-1.696 2.518-3.055 2.486-1.616-.18-2.562-1.16-2.889-2.666a.53.53 0 0 0-.55-.467z" color="#000" font-family="sans-serif" font-weight="400" overflow="visible" style="line-height:normal;font-variant-ligatures:normal;font-variant-position:normal;font-variant-caps:normal;font-variant-numeric:normal;font-variant-alternates:normal;font-feature-settings:normal;text-indent:0;text-align:start;text-decoration-line:none;text-decoration-style:solid;text-decoration-color:#000;text-transform:none;text-orientation:mixed;shape-padding:0;isolation:auto;mix-blend-mode:normal" transform="translate(0 -280.067)"/><path fill="#ffc6cd" d="m15.109 15.081 1.295-2.243-4.147-2.394c-.486-.281-1.31-.703-2.727-.304-1.235.346-2.766.74-2.766.74-.9.242-.579 1.516.617 1.837 0 0-1.464-.18-2.628-.853l-.908-.523c-.768-.444-2.276-1.138-3.316.662l5.757 3.324c2.867 1.655 5.234-1.348 7.632.037.281.124.825.352 1.19-.283z"/><path fill="#ffaecd" d="m3.295 293.667 2.99 1.727c2.868 1.655 5.235-1.348 7.633.037.28.124.825.352 1.19-.283l.057-.098c-.294-.172-.978-.527-1.655-.718-1.438-.357-2.913.188-4.102.537-.951.251-1.948.22-2.742-.264l-2.58-1.505c-.42-.208-.854.226-.791.567z" color="#000" font-family="sans-serif" font-weight="400" overflow="visible" style="line-height:normal;font-variant-ligatures:normal;font-variant-position:normal;font-variant-caps:normal;font-variant-numeric:normal;font-variant-alternates:normal;font-feature-settings:normal;text-indent:0;text-align:start;text-decoration-line:none;text-decoration-style:solid;text-decoration-color:#000;text-transform:none;text-orientation:mixed;shape-padding:0;isolation:auto;mix-blend-mode:normal" transform="translate(0 -280.067)"/><path fill="#ffaecd" d="m8.762 292.414-1.35.362a.53.53 0 0 0 .643.742l.55-.164a.53.53 0 0 0 .157-.94z" color="#000" font-family="sans-serif" font-weight="400" overflow="visible" style="line-height:normal;font-variant-ligatures:normal;font-variant-position:normal;font-variant-caps:normal;font-variant-numeric:normal;font-variant-alternates:normal;font-feature-settings:normal;text-indent:0;text-align:start;text-decoration-line:none;text-decoration-style:solid;text-decoration-color:#000;text-transform:none;text-orientation:mixed;shape-padding:0;isolation:auto;mix-blend-mode:normal" transform="translate(0 -280.067)"/><path fill="#ef6356" d="M5.807 3.11a.578.578 0 0 0-.58.58v.476h-.476a.578.578 0 0 0-.58.58v.345c0 .321.259.58.58.58h.477v.477c0 .32.258.579.58.579h.345c.32 0 .58-.258.58-.58v-.476h.476c.321 0 .58-.259.58-.58v-.345a.578.578 0 0 0-.58-.58h-.477V3.69a.578.578 0 0 0-.58-.579z"/><path fill="#d85750" d="M6.431 4.84a.53.53 0 0 0-.527.53v.527h-.676v.25c0 .322.258.58.579.58h.346a.577.577 0 0 0 .579-.58v-.476h.477c.32 0 .58-.258.58-.58v-.25z"/></svg>