<svg xmlns="http://www.w3.org/2000/svg" viewBox="0 0 24 24"><path fill="#028F85" d="M9.025 23H2a1 1 0 0 1-1-1v-7.945a1.005 1.005 0 0 1 .086-.407l2.246-5.054A1 1 0 0 1 4.246 8a3.257 3.257 0 0 1 3.052 4.395l-.246.66h2.892a2.444 2.444 0 0 1 2.405 2.882l-.92 5.055A2.443 2.443 0 0 1 9.026 23Z"/><path fill="#A9E4E0" d="M19.754 16a3.257 3.257 0 0 1-3.052-4.395l.246-.66h-2.892a2.444 2.444 0 0 1-2.405-2.882l.92-5.055A2.443 2.443 0 0 1 14.974 1H22a1 1 0 0 1 1 1v7.945a1.005 1.005 0 0 1-.086.407l-2.246 5.054a1 1 0 0 1-.914.594ZM22 9.945Z"/></svg>