<svg xmlns="http://www.w3.org/2000/svg" width="64" height="64" viewBox="0 0 16.933 16.933"><g transform="translate(0 -280.067)"><ellipse cx="8.467" cy="294" fill="#d9eaff" rx="5.046" ry="2.523"/><path fill="#c2e1ff" d="M 41.494141 44.400391 C 37.854859 49.311404 34.124846 52.875 32 52.875 C 29.796922 52.875 26.060205 49.325113 22.4375 44.423828 A 19.071983 9.5359913 0 0 0 19.289062 45.566406 L 19.400391 45.683594 C 19.751269 46.212916 21.039353 48.068891 23.865234 51.162109 C 25.560397 53.017593 26.837879 54.192033 28.117188 54.972656 C 29.396495 55.753242 30.70103 56.048492 31.845703 56.138672 C 34.075032 56.314042 35.427784 55.107436 36.695312 54.181641 C 37.962844 53.255883 38.947262 52.322266 38.947266 52.322266 A 2.0001999 2.0001999 0 0 0 39.021484 52.248047 C 39.021484 52.248047 42.352489 48.774881 44.615234 45.519531 A 19.071983 9.5359913 0 0 0 41.494141 44.400391 z " color="#000" font-family="sans-serif" font-weight="400" overflow="visible" transform="matrix(.26458 0 0 .26458 0 280.067)" white-space="normal" style="line-height:normal;font-variant-ligatures:normal;font-variant-position:normal;font-variant-caps:normal;font-variant-numeric:normal;font-variant-alternates:normal;font-feature-settings:normal;text-indent:0;text-align:start;text-decoration-line:none;text-decoration-style:solid;text-decoration-color:#000;text-transform:none;text-orientation:mixed;shape-padding:0;isolation:auto;mix-blend-mode:normal"/><path fill="#ef6356" d="m 13.642578,285.77173 c -1e-6,2.85858 -3.822153,8.28476 -5.1759112,8.28476 -1.4055948,0 -5.1759106,-5.42618 -5.1759114,-8.28476 8e-7,-2.85858 2.317335,-5.17591 5.1759114,-5.17591 2.8585762,0 5.1759102,2.31733 5.1759112,5.17591 z"/><path fill="#d85750" d="M 21.449219 25.789062 A 2.0001999 2.0001999 0 0 0 21.244141 25.791016 A 2.0001999 2.0001999 0 0 0 19.658203 28.839844 C 19.658203 28.839844 23.75164 35.527344 32 35.527344 C 40.219377 35.527344 44.269531 29.001953 44.269531 29.001953 A 2.0001999 2.0001999 0 0 0 42.326172 25.925781 A 11.601555 11.601555 0 0 1 32 32.263672 A 11.601555 11.601555 0 0 1 21.605469 25.804688 A 2.0001999 2.0001999 0 0 0 21.449219 25.789062 z " color="#000" font-family="sans-serif" font-weight="400" overflow="visible" transform="matrix(.26458 0 0 .26458 0 280.067)" white-space="normal" style="line-height:normal;font-variant-ligatures:normal;font-variant-position:normal;font-variant-caps:normal;font-variant-numeric:normal;font-variant-alternates:normal;font-feature-settings:normal;text-indent:0;text-align:start;text-decoration-line:none;text-decoration-style:solid;text-decoration-color:#000;text-transform:none;text-orientation:mixed;shape-padding:0;isolation:auto;mix-blend-mode:normal"/><path fill="#d9eaff" d="m 11.536246,285.53376 a 3.0695781,3.0695781 0 0 1 -3.0695795,3.06957 3.0695781,3.0695781 0 0 1 -3.069579,-3.06957 3.0695781,3.0695781 0 0 1 3.069579,-3.06958 3.0695781,3.0695781 0 0 1 3.0695795,3.06958 z"/><path fill="#ef6356" d="m 8.2938067,283.72534 c -0.32104,0 -0.57929,0.25825 -0.57929,0.57929 v 0.47698 h -0.47697 c -0.32105,0 -0.5793,0.25824 -0.5793,0.57929 v 0.34571 c 0,0.32105 0.25825,0.5793 0.5793,0.5793 h 0.47697 v 0.47697 c 0,0.32105 0.25825,0.57929 0.57929,0.57929 h 0.34572 c 0.32104,0 0.57929,-0.25824 0.57929,-0.57929 v -0.47697 h 0.47697 c 0.3210503,0 0.5793003,-0.25825 0.5793003,-0.5793 v -0.34571 c 0,-0.32105 -0.25825,-0.57929 -0.5793003,-0.57929 h -0.47697 v -0.47698 c 0,-0.32104 -0.25825,-0.57929 -0.57929,-0.57929 z"/><path fill="#d85750" d="m 8.9178067,285.45571 a 0.52921956,0.52921956 0 0 0 -0.5271,0.52916 v 0.5271 h -0.67644 v 0.25115 c 0,0.32105 0.25825,0.57929 0.57929,0.57929 h 0.34623 c 0.32104,0 0.57878,-0.25824 0.57878,-0.57929 v -0.47697 h 0.47697 c 0.3210503,0 0.5798103,-0.25824 0.5798103,-0.57929 v -0.25115 z"/></g></svg>