<svg xmlns="http://www.w3.org/2000/svg" width="64" height="64" viewBox="0 0 16.933 16.933"><g transform="translate(0 -280.067)"><path fill="#d9eaff" d="M 45.730469 24.25 L 2.0136719 24.25 A 21.874999 21.874999 0 0 0 23.875 45.75 A 21.874999 21.874999 0 0 0 45.730469 24.25 z " transform="matrix(.26458 0 0 .26458 0 280.067)"/><path fill="#57a3ff" d="M 23.875 2 A 21.874999 21.874999 0 0 0 2 23.875 A 21.874999 21.874999 0 0 0 2.0136719 24.25 L 45.730469 24.25 A 21.874999 21.874999 0 0 0 45.75 23.875 A 21.874999 21.874999 0 0 0 23.875 2 z " transform="matrix(.26458 0 0 .26458 0 280.067)"/><path fill="#ffc861" d="M 41.25 40.875 L 30.3125 40.875 C 24.460871 40.875 19.75 45.585871 19.75 51.4375 C 19.75 57.289129 24.460871 62 30.3125 62 L 41.25 62 L 41.25 40.875 z " transform="matrix(.26458 0 0 .26458 0 280.067)"/><path fill="#d9eaff" d="M 41.25 40.875 L 41.25 62 L 51.4375 62 C 57.289129 62 62 57.289129 62 51.4375 C 62 45.585871 57.289129 40.875 51.4375 40.875 L 41.25 40.875 z " transform="matrix(.26458 0 0 .26458 0 280.067)"/><path fill="#c2e1ff" d="m 29.386719,37.558594 0.126953,0.0078 c 0,0 -1.061148,-0.0499 -2.44336,0.279297 -1.38221,0.329197 -3.250183,1.032326 -5.316406,2.458985 -1.956423,1.350871 -3.17006,3.084012 -3.904297,4.599609 1.187632,0.336339 2.409412,0.583272 3.636719,0.714844 C 23.360639,42.754078 26.627666,40.875 30.3125,40.875 h 7.283203 c 1.222491,-0.983208 2.335666,-2.095074 3.320313,-3.316406 z" color="#000" font-family="sans-serif" font-weight="400" overflow="visible" transform="matrix(.26458 0 0 .26458 0 280.067)" white-space="normal" style="line-height:normal;font-variant-ligatures:normal;font-variant-position:normal;font-variant-caps:normal;font-variant-numeric:normal;font-variant-alternates:normal;font-feature-settings:normal;text-indent:0;text-align:start;text-decoration-line:none;text-decoration-style:solid;text-decoration-color:#000;text-transform:none;text-orientation:mixed;shape-padding:0;isolation:auto;mix-blend-mode:normal"/><path fill="#ffab61" d="M 30.982422 58.818359 A 2.000485 2.000485 0 0 0 29.289062 61.947266 C 29.62629 61.979457 29.966561 62 30.3125 62 L 41.25 62 L 41.25 58.818359 L 30.982422 58.818359 z " color="#000" font-family="sans-serif" font-weight="400" overflow="visible" transform="matrix(.26458 0 0 .26458 0 280.067)" white-space="normal" style="line-height:normal;font-variant-ligatures:normal;font-variant-position:normal;font-variant-caps:normal;font-variant-numeric:normal;font-variant-alternates:normal;font-feature-settings:normal;text-indent:0;text-align:start;text-decoration-line:none;text-decoration-style:solid;text-decoration-color:#000;text-transform:none;text-orientation:mixed;shape-padding:0;isolation:auto;mix-blend-mode:normal"/><path fill="#c2e1ff" d="M 41.25,58.818359 V 62 h 10.1875 c 1.462907,0 2.854611,-0.295049 4.119141,-0.828125 1.264529,-0.533076 2.402836,-1.303227 3.357421,-2.257813 0.954586,-0.954585 1.724737,-2.092892 2.257813,-3.357421 0.316959,-0.75187 0.554913,-1.587416 0.691408,-2.417414 -0.390264,-0.420358 -1.141432,-0.684749 -1.714845,-0.670477 -0.876323,0.02176 -1.636369,0.611591 -1.875,1.455078 -1.438659,4.818784 -6.429688,4.894531 -6.429688,4.894531 z" color="#000" font-family="sans-serif" font-weight="400" overflow="visible" transform="matrix(.26458 0 0 .26458 0 280.067)" white-space="normal" style="line-height:normal;font-variant-ligatures:normal;font-variant-position:normal;font-variant-caps:normal;font-variant-numeric:normal;font-variant-alternates:normal;font-feature-settings:normal;text-indent:0;text-align:start;text-decoration-line:none;text-decoration-style:solid;text-decoration-color:#000;text-transform:none;text-orientation:mixed;shape-padding:0;isolation:auto;mix-blend-mode:normal"/></g></svg>