<svg xmlns="http://www.w3.org/2000/svg" width="64" height="64" viewBox="0 0 16.933 16.933"><g transform="translate(0 -280.067)"><path fill="#55a1ff" d="M 6.8476562 10.359375 C 4.1623998 10.359375 2 12.519799 2 15.205078 L 2 53.71875 C 2 56.403991 4.1623998 58.564453 6.8476562 58.564453 L 25.585938 58.564453 C 26.579415 60.600291 28.660029 62 31.085938 62 L 32.914062 62 C 35.339971 62 37.420585 60.600291 38.414062 58.564453 L 57.152344 58.564453 C 59.8376 58.564453 62 56.403991 62 53.71875 L 62 15.205078 C 62 12.519799 59.8376 10.359375 57.152344 10.359375 L 6.8476562 10.359375 z " transform="matrix(.26458 0 0 .26458 0 280.067)"/><path fill="#d9eaff" d="M 15.435547,2 C 12.75029,2 10.587891,4.1624153 10.587891,6.8476562 V 42.931641 c 0,2.685278 2.162399,4.845703 4.847656,4.845703 h 10.216797 c 1.019337,1.960125 3.063292,3.294922 5.433594,3.294922 h 1.828124 c 2.370302,0 4.414257,-1.334797 5.433594,-3.294922 h 9.988282 c 2.685256,0 4.847656,-2.160425 4.847656,-4.845703 V 6.8476562 C 53.183594,4.1624153 51.021194,2 48.335938,2 H 36.847673 C 34.162416,2 32.000017,4.1624153 32.000017,6.8476562 32.000017,4.1624153 29.83957,2 27.154313,2 Z" transform="matrix(.26458 0 0 .26458 0 280.067)"/><path fill="#666" d="M4.7558594 288.26953a.26495432.26495432 0 0 0 .025391.5293h6.013672a.26465.26465 0 1 0 0-.5293H4.78125a.26460984.26460984 0 0 0-.025391 0zM9.5507812 290.45703a.26500291.26500291 0 0 0 .027344.5293h1.216797a.26465.26465 0 1 0 0-.5293H9.578125a.26460984.26460984 0 0 0-.027344 0zM4.7558594 290.45703a.26495432.26495432 0 0 0 .025391.5293h3.5332031a.26465.26465 0 1 0 0-.5293H4.78125a.26460984.26460984 0 0 0-.025391 0z" color="#000" font-family="sans-serif" font-weight="400" overflow="visible" white-space="normal" style="line-height:normal;font-variant-ligatures:normal;font-variant-position:normal;font-variant-caps:normal;font-variant-numeric:normal;font-variant-alternates:normal;font-feature-settings:normal;text-indent:0;text-align:start;text-decoration-line:none;text-decoration-style:solid;text-decoration-color:#000;text-transform:none;text-orientation:mixed;shape-padding:0;isolation:auto;mix-blend-mode:normal"/><path fill="#ef6356" d="m 5.8567454,282.84949 c -0.32104,0 -0.57929,0.25825 -0.57929,0.57929 v 0.47698 h -0.47697 c -0.32105,0 -0.5793,0.25824 -0.5793,0.57929 v 0.34571 c 0,0.32105 0.25825,0.5793 0.5793,0.5793 h 0.47697 v 0.47697 c 0,0.32105 0.25825,0.57929 0.57929,0.57929 h 0.34572 c 0.32104,0 0.57929,-0.25824 0.57929,-0.57929 v -0.47697 h 0.4769702 c 0.32105,0 0.5793,-0.25825 0.5793,-0.5793 v -0.34571 c 0,-0.32105 -0.25825,-0.57929 -0.5793,-0.57929 H 6.7817554 v -0.47698 c 0,-0.32104 -0.25825,-0.57929 -0.57929,-0.57929 z"/><path fill="#d85750" d="m 6.4807454,284.57986 a 0.52921956,0.52921956 0 0 0 -0.5271,0.52917 v 0.5271 h -0.67644 v 0.25115 c 0,0.32105 0.25825,0.57929 0.57929,0.57929 h 0.34623 c 0.32104,0 0.57878,-0.25824 0.57878,-0.57929 v -0.47698 h 0.4769702 c 0.32105,0 0.57981,-0.25824 0.57981,-0.57929 v -0.25115 z"/><path fill="#488bff" d="m 54.279297,35.59375 c -0.391988,0.0079 -0.773009,0.130837 -1.095703,0.353516 v 6.984375 c 0,2.685278 -2.162401,4.845703 -4.847656,4.845703 h -9.988282 c -1.019337,1.960125 -3.063292,3.294922 -5.433594,3.294922 h -1.828124 c -2.370302,0 -4.414257,-1.334797 -5.433594,-3.294922 H 15.435547 c -2.685257,0 -4.847656,-2.160425 -4.847656,-4.845703 v -5.078125 c -1.3283962,-0.884689 -3.1070408,0.06608 -3.1093754,1.662109 v 2.257813 1.675781 c 6.079e-4,0.04237 0.00256,0.08471 0.00586,0.126953 0,0 0.1366797,3.178734 2.695313,5.402344 2.509906,2.181354 5.558593,1.927734 5.558593,1.927734 h 8.466797 c 0.408608,0.544706 0.506496,0.895093 1.601563,1.667969 2.081148,1.468875 4.414062,1.59375 4.414062,1.59375 0.0617,0.0055 0.12361,0.0081 0.185547,0.0078 h 1.431641 c 0,0 2.78979,0.336363 5.425781,-1.011719 1.648165,-0.842796 1.802143,-1.540101 2.294922,-2.302734 h 9.353515 c 0.08423,1.02e-4 0.168381,-0.0051 0.251953,-0.01563 l 0.375,-0.05078 c 0,0 0.775949,-0.06366 1.625,-0.384766 0.849052,-0.32126 1.928984,-0.918548 2.966797,-1.984375 2.188766,-2.248025 2.177735,-5.072265 2.177735,-5.072265 V 37.625 c 0.01653,-1.127524 -0.901773,-2.045822 -2.029297,-2.029297 z" color="#000" font-family="sans-serif" font-weight="400" overflow="visible" transform="matrix(.26458 0 0 .26458 0 280.067)" white-space="normal" style="line-height:normal;font-variant-ligatures:normal;font-variant-position:normal;font-variant-caps:normal;font-variant-numeric:normal;font-variant-alternates:normal;font-feature-settings:normal;text-indent:0;text-align:start;text-decoration-line:none;text-decoration-style:solid;text-decoration-color:#000;text-transform:none;text-orientation:mixed;shape-padding:0;isolation:auto;mix-blend-mode:normal"/><path fill="#666" d="M9.484375 283.24219a.26499792.26499792 0 0 0 .027344.52929h2.8378902a.264645.264645 0 1 0 0-.52929H9.5117188a.26460984.26460984 0 0 0-.027344 0zM9.5117188 285.42969a.264645.264645 0 1 0 0 .52929h1.8125002a.264645.264645 0 1 0 0-.52929z" color="#000" font-family="sans-serif" font-weight="400" overflow="visible" white-space="normal" style="line-height:normal;font-variant-ligatures:normal;font-variant-position:normal;font-variant-caps:normal;font-variant-numeric:normal;font-variant-alternates:normal;font-feature-settings:normal;text-indent:0;text-align:start;text-decoration-line:none;text-decoration-style:solid;text-decoration-color:#000;text-transform:none;text-orientation:mixed;shape-padding:0;isolation:auto;mix-blend-mode:normal"/></g></svg>