<svg xmlns="http://www.w3.org/2000/svg" width="64" height="64" viewBox="0 0 16.933 16.933"><g transform="translate(0 -280.067)"><path fill="#d9eaff" d="M 38.447266 2 L 19.408203 2 C 15.220487 2 11.849609 5.3708772 11.849609 9.5585938 L 11.849609 54.441406 C 11.849609 58.629123 15.220487 62 19.408203 62 L 45.658203 62 C 49.84592 62 53.216797 58.629123 53.216797 54.441406 L 53.216797 16.771484 L 38.447266 2 z " transform="matrix(.26458 0 0 .26458 0 280.067)"/><path fill="#55a1ff" d="m 14.080277,284.50411 -3.90777,-3.90829 v 1.90842 c 0,1.108 0.89188,1.99987 1.99988,1.99987 z"/><path fill="#666" d="M5.6015625 288.7168a.264645.264645 0 1 0 0 .52929h6.0136715a.264645.264645 0 1 0 0-.52929zM10.369141 290.90625a.26500289.26500289 0 0 0 .02734.5293h1.21875a.26465.26465 0 1 0 0-.5293h-1.21875a.26460981.26460981 0 0 0-.02734 0zM5.6015625 293.04297a.26465.26465 0 1 0 0 .5293h6.0136715a.26465.26465 0 1 0 0-.5293z" color="#000" font-family="sans-serif" font-weight="400" overflow="visible" white-space="normal" style="line-height:normal;font-variant-ligatures:normal;font-variant-position:normal;font-variant-caps:normal;font-variant-numeric:normal;font-variant-alternates:normal;font-feature-settings:normal;text-indent:0;text-align:start;text-decoration-line:none;text-decoration-style:solid;text-decoration-color:#000;text-transform:none;text-orientation:mixed;shape-padding:0;isolation:auto;mix-blend-mode:normal"/><path fill="#bfdcff" d="M 45.701172 16.755859 A 2.000485 2.000485 0 0 0 47.318359 19.929688 L 53.216797 19.929688 L 53.216797 16.771484 L 46.005859 16.771484 C 45.903008 16.771484 45.803 16.759888 45.701172 16.755859 z " color="#000" font-family="sans-serif" font-weight="400" overflow="visible" transform="matrix(.26458 0 0 .26458 0 280.067)" white-space="normal" style="line-height:normal;font-variant-ligatures:normal;font-variant-position:normal;font-variant-caps:normal;font-variant-numeric:normal;font-variant-alternates:normal;font-feature-settings:normal;text-indent:0;text-align:start;text-decoration-line:none;text-decoration-style:solid;text-decoration-color:#000;text-transform:none;text-orientation:mixed;shape-padding:0;isolation:auto;mix-blend-mode:normal"/><path fill="#666" d="m 5.5742188,290.90625 a 0.26500291,0.26500291 0 0 0 0.027344,0.5293 h 3.5332031 a 0.26465,0.26465 0 1 0 0,-0.5293 H 5.6015625 a 0.26460981,0.26460981 0 0 0 -0.027344,0 z" color="#000" font-family="sans-serif" font-weight="400" overflow="visible" white-space="normal" style="line-height:normal;font-variant-ligatures:normal;font-variant-position:normal;font-variant-caps:normal;font-variant-numeric:normal;font-variant-alternates:normal;font-feature-settings:normal;text-indent:0;text-align:start;text-decoration-line:none;text-decoration-style:solid;text-decoration-color:#000;text-transform:none;text-orientation:mixed;shape-padding:0;isolation:auto;mix-blend-mode:normal"/><path fill="#bfdcff" d="M 51.953125 38.177734 A 2.0001999 2.0001999 0 0 0 49.990234 40.208984 L 49.990234 54.779297 C 49.990234 56.6677 49.114634 57.400054 48.003906 58.021484 C 46.914869 58.630782 45.832705 58.782977 45.789062 58.789062 L 21.251953 58.789062 A 2.0001999 2.0001999 0 0 0 19.546875 62 L 45.658203 62 C 49.84592 62 53.216797 58.629123 53.216797 54.441406 L 53.216797 38.605469 A 2.0001999 2.0001999 0 0 0 51.953125 38.177734 z " color="#000" font-family="sans-serif" font-weight="400" overflow="visible" transform="matrix(.26458 0 0 .26458 0 280.067)" white-space="normal" style="line-height:normal;font-variant-ligatures:normal;font-variant-position:normal;font-variant-caps:normal;font-variant-numeric:normal;font-variant-alternates:normal;font-feature-settings:normal;text-indent:0;text-align:start;text-decoration-line:none;text-decoration-style:solid;text-decoration-color:#000;text-transform:none;text-orientation:mixed;shape-padding:0;isolation:auto;mix-blend-mode:normal"/><path fill="#ef6356" d="m 6.6759216,283.29808 c -0.32104,0 -0.57929,0.25825 -0.57929,0.57929 v 0.47698 h -0.47697 c -0.32105,0 -0.5793,0.25824 -0.5793,0.57929 v 0.34571 c 0,0.32105 0.25825,0.5793 0.5793,0.5793 h 0.47697 v 0.47697 c 0,0.32105 0.25825,0.57929 0.57929,0.57929 h 0.34572 c 0.32104,0 0.57929,-0.25824 0.57929,-0.57929 v -0.47697 h 0.4769702 c 0.32105,0 0.5793,-0.25825 0.5793,-0.5793 v -0.34571 c 0,-0.32105 -0.25825,-0.57929 -0.5793,-0.57929 H 7.6009316 v -0.47698 c 0,-0.32104 -0.25825,-0.57929 -0.57929,-0.57929 z"/><path fill="#d85750" d="m 7.2999216,285.02845 a 0.52921956,0.52921956 0 0 0 -0.5271,0.52917 v 0.5271 h -0.67644 v 0.25115 c 0,0.32105 0.25825,0.57929 0.57929,0.57929 h 0.34623 c 0.32104,0 0.57878,-0.25824 0.57878,-0.57929 v -0.47698 h 0.4769702 c 0.32105,0 0.57981,-0.25824 0.57981,-0.57929 v -0.25115 z"/></g></svg>