<svg xmlns="http://www.w3.org/2000/svg" width="64" height="64" viewBox="0 0 16.933 16.933"><path fill="#55a1ff" d="M4.872.93c0 2.742-1.346 3.515-2.866 3.787-.11.692-.165 1.928-.166 2.638 0 5.287 4.984 9.044 6.627 9.044 1.576 0 6.627-3.757 6.627-9.044-.001-.71-.057-1.946-.166-2.638-1.52-.272-2.867-1.045-2.867-3.787C9.774.401 7.195.401 4.872.93z"/><path style="line-height:normal;font-variant-ligatures:normal;font-variant-position:normal;font-variant-caps:normal;font-variant-numeric:normal;font-variant-alternates:normal;font-feature-settings:normal;text-indent:0;text-align:start;text-decoration-line:none;text-decoration-style:solid;text-decoration-color:#000;text-transform:none;text-orientation:mixed;shape-padding:0;isolation:auto;mix-blend-mode:normal" fill="#488bff" d="M14.735 286.211a.53.53 0 0 0-.542.617s.136.882-.095 2.094c-.213 1.114-1.446 3.696-2.645 4.73-1.37 1.183-2.259 1.9-3.03 1.962-.19.015-.933-.302-1.509-.704a11.846 11.846 0 0 1-1.035-.816.53.53 0 0 0-.879.313c1.328 1.306 2.731 2.06 3.467 2.06 1.576 0 6.627-3.758 6.627-9.045 0-.294-.013-.683-.032-1.082a.53.53 0 0 0-.327-.129z" color="#000" font-family="sans-serif" font-weight="400" overflow="visible" transform="translate(0 -280.067)"/><path fill="#d9eaff" d="M12.436 8.466a3.969 3.969 0 0 1-3.97 3.969 3.969 3.969 0 0 1-3.968-3.969 3.969 3.969 0 0 1 3.969-3.969 3.969 3.969 0 0 1 3.969 3.97z"/><path style="line-height:normal;font-variant-ligatures:normal;font-variant-position:normal;font-variant-caps:normal;font-variant-numeric:normal;font-variant-alternates:normal;font-feature-settings:normal;text-indent:0;text-align:start;text-decoration-line:none;text-decoration-style:solid;text-decoration-color:#000;text-transform:none;text-orientation:mixed;shape-padding:0;isolation:auto;mix-blend-mode:normal" fill="#bfdcff" d="M5.656 288.138a.53.53 0 0 0-.367.164 3.969 3.969 0 0 0 3.93 3.448 3.969 3.969 0 0 0 3.927-3.426.53.53 0 0 0-.884.242s-.168.587-.65 1.18c-.483.593-1.218 1.157-2.481 1.137-1.268-.02-1.95-.59-2.383-1.172a3.36 3.36 0 0 1-.558-1.148.53.53 0 0 0-.534-.425z" color="#000" font-family="sans-serif" font-weight="400" overflow="visible" transform="translate(-.752 -279.315)"/><path fill="#ef6356" d="M8.293 6.658a.578.578 0 0 0-.579.579v.477h-.477a.578.578 0 0 0-.58.58v.345c0 .321.26.58.58.58h.477v.476c0 .321.258.58.58.58h.345c.321 0 .58-.259.58-.58v-.477h.476c.322 0 .58-.258.58-.579v-.346a.578.578 0 0 0-.58-.579H9.22v-.477a.578.578 0 0 0-.58-.58z"/><path fill="#d85750" d="M8.917 8.388a.53.53 0 0 0-.527.53v.526h-.676v.251c0 .322.258.58.58.58h.345a.577.577 0 0 0 .58-.58V9.22h.476c.321 0 .58-.259.58-.58v-.25z"/></svg>