<svg xmlns="http://www.w3.org/2000/svg" width="64" height="64" viewBox="0 0 16.933 16.933"><g transform="translate(0 -280.067)"><path fill="#55a1ff" d="m 3.6953682,282.69157 h 9.5425958 c 0.677443,0 1.222822,0.54537 1.222822,1.22282 V 295.248 c 0,0.67744 -0.545379,1.22282 -1.222822,1.22282 H 8.2056966 3.6953682 c -0.6774428,0 -1.222821,-0.54538 -1.222821,-1.22282 v -11.33361 c 0,-0.67745 0.5453782,-1.22282 1.222821,-1.22282 z"/><path fill="#d9eaff" d="m 5.2941571,284.37357 h 6.3450199 m 0,0 c 0.508413,0 0.917713,0.39542 0.917713,0.88659 v 8.44907 c 0,0.49117 -0.4093,0.88659 -0.917713,0.88659 H 5.2941571 c -0.5084132,0 -0.9177133,-0.39542 -0.9177133,-0.88659 v -8.44907 c 0,-0.49117 0.4093001,-0.88659 0.9177133,-0.88659"/><path fill="#ef6356" d="m 7.519632,286.25752 c -0.1864622,-0.006 -0.3593301,0.0353 -0.5083762,0.12133 -0.6155705,0.35537 -0.6915363,1.37618 -0.1696663,2.27993 0.3986435,0.689 1.0484505,1.13361 1.6249589,1.11185 0.5765766,0.0219 1.2265539,-0.42271 1.6252746,-1.11185 0.521866,-0.90387 0.445754,-1.92472 -0.1699844,-2.27993 -0.4036988,-0.23196 -0.9602339,-0.12587 -1.4552902,0.27742 -0.3038472,-0.24785 -0.6370072,-0.38815 -0.9469164,-0.39875 z"/><path fill="#488bff" d="M 20.724609 54.914062 A 2.000485 2.000485 0 0 0 22.316406 58.125 L 40.939453 58.125 A 2.000485 2.000485 0 0 0 42.529297 54.914062 L 20.724609 54.914062 z " color="#000" font-family="sans-serif" font-weight="400" overflow="visible" transform="matrix(.26458 0 0 .26458 0 280.067)" white-space="normal" style="line-height:normal;font-variant-ligatures:normal;font-variant-position:normal;font-variant-caps:normal;font-variant-numeric:normal;font-variant-alternates:normal;font-feature-settings:normal;text-indent:0;text-align:start;text-decoration-line:none;text-decoration-style:solid;text-decoration-color:#000;text-transform:none;text-orientation:mixed;shape-padding:0;isolation:auto;mix-blend-mode:normal"/><path fill="#d85750" d="m 38.105469,26.876953 c -0.951118,0.02813 -1.75076,0.722402 -1.91211,1.660156 0,0 -0.251709,1.330105 -1.357421,2.871094 -1.105714,1.541027 -2.904573,3.155258 -6.445313,3.574219 -0.131166,0.01323 -0.268515,0.04722 -0.394532,0.08594 1.252004,1.060273 2.682009,1.657316 4.003907,1.607421 2.179187,0.08277 4.635602,-1.596548 6.142578,-4.201172 0.999261,-1.730716 1.415424,-3.573434 1.283203,-5.146484 -0.371684,-0.303992 -0.84032,-0.464133 -1.320312,-0.451172 z" color="#000" font-family="sans-serif" font-weight="400" overflow="visible" transform="matrix(.26458 0 0 .26458 0 280.067)" white-space="normal" style="line-height:normal;font-variant-ligatures:normal;font-variant-position:normal;font-variant-caps:normal;font-variant-numeric:normal;font-variant-alternates:normal;font-feature-settings:normal;text-indent:0;text-align:start;text-decoration-line:none;text-decoration-style:solid;text-decoration-color:#000;text-transform:none;text-orientation:mixed;shape-padding:0;isolation:auto;mix-blend-mode:normal"/><path fill="#666" d="M6.1347656 291.0625a.26465.26465 0 1 0 0 .5293h4.6796874a.26465.26465 0 1 0 0-.5293zM6.1347656 292.68359a.26465.26465 0 1 0 0 .5293h2.3320313a.26465.26465 0 1 0 0-.5293zM9.6074219 292.68359a.26465.26465 0 1 0 0 .5293h1.2070311a.26465.26465 0 1 0 0-.5293z" color="#000" font-family="sans-serif" font-weight="400" overflow="visible" white-space="normal" style="line-height:normal;font-variant-ligatures:normal;font-variant-position:normal;font-variant-caps:normal;font-variant-numeric:normal;font-variant-alternates:normal;font-feature-settings:normal;text-indent:0;text-align:start;text-decoration-line:none;text-decoration-style:solid;text-decoration-color:#000;text-transform:none;text-orientation:mixed;shape-padding:0;isolation:auto;mix-blend-mode:normal"/><path fill="#488bff" d="m 16.623047,9.921875 0,4.425781 c 0,1.533089 0.150959,2.372694 0.558594,3.445313 0.124906,-0.179314 0.215462,-0.382916 0.373047,-0.535157 0.313466,-0.302836 0.686315,-0.547681 1.101562,-0.716796 0.415247,-0.169116 0.873125,-0.263672 1.353516,-0.263672 h 0.773437 C 20.679092,16.099974 20.630673,15.949076 20.625,15.921875 v -6 z" color="#000" font-family="sans-serif" font-weight="400" overflow="visible" transform="matrix(.26458 0 0 .26458 0 280.067)" white-space="normal" style="line-height:normal;font-variant-ligatures:normal;font-variant-position:normal;font-variant-caps:normal;font-variant-numeric:normal;font-variant-alternates:normal;font-feature-settings:normal;text-indent:0;text-align:start;text-decoration-line:none;text-decoration-style:solid;text-decoration-color:#000;text-transform:none;text-orientation:mixed;shape-padding:0;isolation:auto;mix-blend-mode:normal"/><path fill="#c2e1ff" d="M 46.791016 17.751953 C 46.673114 17.587932 46.590991 17.398551 46.445312 17.257812 C 46.131845 16.954975 45.758997 16.710131 45.34375 16.541016 C 44.928503 16.3719 44.470625 16.277344 43.990234 16.277344 L 43.099609 16.277344 C 43.029509 16.32413 42.985508 16.378317 42.896484 16.431641 C 42.52148 16.656145 42.164407 16.712325 42.128906 16.71875 L 21.716797 16.71875 C 20.947891 16.71875 20.954352 16.55109 20.802734 16.320312 C 20.787701 16.297415 20.795832 16.29886 20.783203 16.277344 L 20.009766 16.277344 C 19.529375 16.277344 19.071497 16.3719 18.65625 16.541016 C 18.241003 16.710131 17.868155 16.954975 17.554688 17.257812 C 17.397103 17.410053 17.306547 17.613655 17.181641 17.792969 C 17.303342 18.115221 17.222846 18.159905 17.458984 18.519531 C 18.158929 19.585471 19.704451 20.720703 21.716797 20.720703 L 42.341797 20.720703 A 2.0001999 2.0001999 0 0 0 42.601562 20.705078 C 42.601562 20.705078 43.764273 20.572888 44.949219 19.863281 C 45.627647 19.456874 46.283345 18.690349 46.791016 17.751953 z " color="#000" font-family="sans-serif" font-weight="400" overflow="visible" transform="matrix(.26458 0 0 .26458 0 280.067)" white-space="normal" style="line-height:normal;font-variant-ligatures:normal;font-variant-position:normal;font-variant-caps:normal;font-variant-numeric:normal;font-variant-alternates:normal;font-feature-settings:normal;text-indent:0;text-align:start;text-decoration-line:none;text-decoration-style:solid;text-decoration-color:#000;text-transform:none;text-orientation:mixed;shape-padding:0;isolation:auto;mix-blend-mode:normal"/><path fill="#488bff" d="M 43.501953 9.921875 L 43.501953 15.345703 C 43.501953 15.945687 43.339108 16.1175 43.099609 16.277344 L 43.990234 16.277344 C 44.470625 16.277344 44.928503 16.3719 45.34375 16.541016 C 45.758997 16.710131 46.131846 16.954976 46.445312 17.257812 C 46.590991 17.398551 46.673114 17.587932 46.791016 17.751953 C 47.170045 17.051342 47.501953 16.283187 47.501953 15.345703 L 47.501953 9.921875 L 43.501953 9.921875 z " color="#000" font-family="sans-serif" font-weight="400" overflow="visible" transform="matrix(.26458 0 0 .26458 0 280.067)" white-space="normal" style="line-height:normal;font-variant-ligatures:normal;font-variant-position:normal;font-variant-caps:normal;font-variant-numeric:normal;font-variant-alternates:normal;font-feature-settings:normal;text-indent:0;text-align:start;text-decoration-line:none;text-decoration-style:solid;text-decoration-color:#000;text-transform:none;text-orientation:mixed;shape-padding:0;isolation:auto;mix-blend-mode:normal"/><path fill="#ffc861" d="m 6.8619379,280.59826 c -0.3387275,0 -0.6113743,0.27266 -0.6113743,0.61138 v 0.78858 h -0.407902 c -0.3387281,0 -0.6113738,0.27266 -0.6113738,0.61138 v 1.46382 c 0,0.33872 0.2726457,0.61137 0.6113738,0.61137 h 5.2480114 c 0.338714,0 0.611373,-0.27265 0.611373,-0.61137 v -1.46382 c 0,-0.33872 -0.272659,-0.61138 -0.611373,-0.61138 H 10.6831 v -0.78858 c -1.9e-5,-0.33872 -0.27297,-0.61138 -0.611698,-0.61138 z"/></g></svg>