<svg xmlns="http://www.w3.org/2000/svg" width="64" height="64" viewBox="0 0 16.933 16.933"><g transform="translate(0 -280.067)"><path fill="#d9eaff" d="m 3.8684977,283.00187 v 10.99158 h 9.1963383 v -10.99158 z"/><path fill="#55a1ff" d="M13.064836 293.99345H3.8684977v.9772c0 .831.669167 1.50017 1.5001669 1.50017h6.1965214c.831 0 1.49965-.66917 1.49965-1.50017zM3.8684977 283.00187h9.1963383v-.90589c0-.831-.66865-1.50016-1.49965-1.50016H5.3686646c-.8309999 0-1.5001669.66916-1.5001669 1.50016z"/><path fill="#d9eaff" d="m 7.1132812,281.4668 a 0.264645,0.264645 0 1 0 0,0.52929 h 2.7070313 a 0.264645,0.264645 0 1 0 0,-0.52929 z" color="#000" font-family="sans-serif" font-weight="400" overflow="visible" white-space="normal" style="line-height:normal;font-variant-ligatures:normal;font-variant-position:normal;font-variant-caps:normal;font-variant-numeric:normal;font-variant-alternates:normal;font-feature-settings:normal;text-indent:0;text-align:start;text-decoration-line:none;text-decoration-style:solid;text-decoration-color:#000;text-transform:none;text-orientation:mixed;shape-padding:0;isolation:auto;mix-blend-mode:normal"/><circle cx="8.467" cy="295.232" r=".434" fill="#d1dcff"/><path fill="#488bff" d="m 46.166016,52.636719 v 2.970703 c 8.12e-4,0.04891 0.0034,0.09777 0.0078,0.146484 -0.05972,1.895818 -0.964188,3.009584 -3.322266,3.13086 -0.01953,-2.86e-4 -0.03906,-2.86e-4 -0.05859,0 H 27.453125 C 25.87417,58.922254 24.959319,60.688826 25.839844,62 h 17.871094 c 3.140787,0 5.667968,-2.529134 5.667968,-5.669922 v -3.693359 z" color="#000" font-family="sans-serif" font-weight="400" overflow="visible" transform="matrix(.26458 0 0 .26458 0 280.067)" white-space="normal" style="line-height:normal;font-variant-ligatures:normal;font-variant-position:normal;font-variant-caps:normal;font-variant-numeric:normal;font-variant-alternates:normal;font-feature-settings:normal;text-indent:0;text-align:start;text-decoration-line:none;text-decoration-style:solid;text-decoration-color:#000;text-transform:none;text-orientation:mixed;shape-padding:0;isolation:auto;mix-blend-mode:normal"/><path fill="#c2e1ff" d="M 46.166016 52.636719 L 49.378906 52.636719 L 49.378906 21.537109 A 2.0001999 2.0001999 0 0 0 48.136719 21.126953 A 2.0001999 2.0001999 0 0 0 46.166016 23.148438 L 46.166016 52.636719 z " color="#000" font-family="sans-serif" font-weight="400" overflow="visible" transform="matrix(.26458 0 0 .26458 0 280.067)" white-space="normal" style="line-height:normal;font-variant-ligatures:normal;font-variant-position:normal;font-variant-caps:normal;font-variant-numeric:normal;font-variant-alternates:normal;font-feature-settings:normal;text-indent:0;text-align:start;text-decoration-line:none;text-decoration-style:solid;text-decoration-color:#000;text-transform:none;text-orientation:mixed;shape-padding:0;isolation:auto;mix-blend-mode:normal"/><path fill="#ef6356" d="m 8.2938068,286.68925 c -0.32104,0 -0.57929,0.25825 -0.57929,0.57929 v 0.47698 h -0.47697 c -0.3210499,0 -0.5792999,0.25824 -0.5792999,0.57929 v 0.34571 c 0,0.32105 0.25825,0.5793 0.5792999,0.5793 h 0.47697 v 0.47697 c 0,0.32105 0.25825,0.57929 0.57929,0.57929 h 0.34572 c 0.32104,0 0.57929,-0.25824 0.57929,-0.57929 v -0.47697 h 0.47697 c 0.3210502,0 0.5793002,-0.25825 0.5793002,-0.5793 v -0.34571 c 0,-0.32105 -0.25825,-0.57929 -0.5793002,-0.57929 h -0.47697 v -0.47698 c 0,-0.32104 -0.25825,-0.57929 -0.57929,-0.57929 z"/><path fill="#d85750" d="m 8.9178068,288.41962 a 0.52921956,0.52921956 0 0 0 -0.5271,0.52916 v 0.5271 h -0.67644 v 0.25115 c 0,0.32105 0.25825,0.57929 0.57929,0.57929 h 0.34623 c 0.32104,0 0.57878,-0.25824 0.57878,-0.57929 v -0.47697 h 0.47697 c 0.3210502,0 0.5798102,-0.25824 0.5798102,-0.57929 v -0.25115 z"/></g></svg>