<svg xmlns="http://www.w3.org/2000/svg" enable-background="new 0 0 24 24" viewBox="0 0 24 24"><path fill="#A9E4E0" d="m4.462 4.464.002-.002a4.99 4.99 0 0 1 7.057 0l8.019 8.02a4.99 4.99 0 0 1 0 7.056l-.002.002a4.99 4.99 0 0 1-7.057 0l-8.02-8.02a4.99 4.99 0 0 1 0-7.056z"/><path fill="#028F85" d="m19.06 12.001.48-.48a4.992 4.992 0 1 0-7.06-7.06l-.48.48 7.06 7.06zM4.94 12v.001l-.48.48a4.992 4.992 0 1 0 7.06 7.06l.48-.48L4.94 12z"/><circle cx="9.525" cy="12.001" r="1" fill="#028F85"/><circle cx="12" cy="14.476" r="1" fill="#028F85"/><circle cx="14.475" cy="12.001" r="1" fill="#028F85"/><circle cx="12" cy="9.526" r="1" fill="#028F85"/></svg>