<svg xmlns="http://www.w3.org/2000/svg" width="64" height="64" viewBox="0 0 16.933 16.933"><g transform="translate(0 -280.067)"><path fill="#666" d="M 16.297862,290.79902 H 0.52916647 v 1.87524 c 0,0.70169 0.56482703,1.26652 1.26652403,1.26652 H 15.031015 c 0.701696,0 1.266847,-0.56483 1.266847,-1.26652 z"/><path fill="#55a1ff" d="m 1.7956905,280.59582 c -0.701697,0 -1.26652403,0.56483 -1.26652403,1.26653 v 8.93667 H 16.297862 v -8.93667 c 0,-0.7017 -0.565151,-1.26653 -1.266847,-1.26653 H 8.2321575 Z"/><path fill="#d9eaff" d="M 13.572266 8.21875 C 10.92016 8.21875 8.7851562 10.355756 8.7851562 13.007812 L 8.7851562 15.119141 L 8.7851562 40.5625 L 54.8125 40.5625 L 54.8125 15.119141 L 54.8125 13.007812 C 54.8125 10.355756 52.67747 8.21875 50.025391 8.21875 L 13.572266 8.21875 z " transform="matrix(.26458 0 0 .26458 0 280.067)"/><path fill="#d7e8ff" d="m 6.4284763,293.94078 c -0.142593,0.77304 -0.608056,0.94741 -1.10027,1.43965 -0.591325,0.59131 -0.295852,1.10353 -0.295852,1.10353 h 3.380998 3.3813227 c 0,0 0.295472,-0.51222 -0.295854,-1.10353 -0.49222,-0.49224 -0.957923,-0.66661 -1.100598,-1.43965 z"/><path fill="#488bff" style="line-height:normal;font-variant-ligatures:normal;font-variant-position:normal;font-variant-caps:normal;font-variant-numeric:normal;font-variant-alternates:normal;font-feature-settings:normal;text-indent:0;text-align:start;text-decoration-line:none;text-decoration-style:solid;text-decoration-color:#000;text-transform:none;text-orientation:mixed;shape-padding:0;isolation:auto;mix-blend-mode:normal" d="M14.502406 289.95498v.84388h1.79524v-.84388zM2.3243363 289.95498h-1.79524v.84388h1.79524z" color="#000" font-family="sans-serif" font-weight="400" overflow="visible" white-space="normal"/><path fill="#c2e1ff" style="line-height:normal;font-variant-ligatures:normal;font-variant-position:normal;font-variant-caps:normal;font-variant-numeric:normal;font-variant-alternates:normal;font-feature-settings:normal;text-indent:0;text-align:start;text-decoration-line:none;text-decoration-style:solid;text-decoration-color:#000;text-transform:none;text-orientation:mixed;shape-padding:0;isolation:auto;mix-blend-mode:normal" d="M2.3243363 289.95498v.84388H14.502406v-.84388zM6.4284763 293.94078c-.0697.37813-.21762.61241-.40721.81132h4.7842097c-.18967-.19891-.33743-.43319-.40721-.81132z" color="#000" font-family="sans-serif" font-weight="400" overflow="visible" white-space="normal"/><path fill="#ef6356" d="M 17.501953 17.597656 C 17.163723 17.616554 16.859556 17.805524 16.691406 18.099609 L 14.548828 21.8125 L 8.7851562 21.8125 L 8.7851562 23.8125 L 15.125 23.8125 C 15.481844 23.811291 15.810598 23.620128 15.988281 23.310547 L 17.554688 20.59375 L 22.839844 29.740234 C 23.225601 30.401803 24.180649 30.401803 24.566406 29.740234 L 28.095703 23.628906 L 37.935547 23.628906 C 39.269217 23.628906 39.269217 21.628906 37.935547 21.628906 L 27.519531 21.628906 C 27.16268 21.630116 26.833924 21.82124 26.65625 22.130859 L 23.703125 27.246094 L 18.425781 18.099609 C 18.237958 17.771168 17.879733 17.576907 17.501953 17.597656 z " color="#000" font-family="sans-serif" font-weight="400" overflow="visible" transform="matrix(.26458 0 0 .26458 0 280.067)" white-space="normal" style="line-height:normal;font-variant-ligatures:normal;font-variant-position:normal;font-variant-caps:normal;font-variant-numeric:normal;font-variant-alternates:normal;font-feature-settings:normal;text-indent:0;text-align:start;text-decoration-line:none;text-decoration-style:solid;text-decoration-color:#000;text-transform:none;text-orientation:mixed;shape-padding:0;isolation:auto;mix-blend-mode:normal"/><path fill="none" d="m 11.124519,283.60774 c -0.32104,0 -0.57929,0.25825 -0.57929,0.57929 v 0.47698 h -0.47697 c -0.32105,0 -0.5793,0.25824 -0.5793,0.57929 v 0.34571 c 0,0.32105 0.25825,0.5793 0.5793,0.5793 h 0.47697 v 0.47697 c 0,0.32105 0.25825,0.57929 0.57929,0.57929 h 0.34572 c 0.32104,0 0.57929,-0.25824 0.57929,-0.57929 v -0.47697 h 0.47697 c 0.32105,0 0.5793,-0.25825 0.5793,-0.5793 v -0.34571 c 0,-0.32105 -0.25825,-0.57929 -0.5793,-0.57929 h -0.47697 v -0.47698 c 0,-0.32104 -0.25825,-0.57929 -0.57929,-0.57929 z"/><path fill="#ef6356" d="m 11.125864,284.30561 c -0.32104,0 -0.57929,0.25825 -0.57929,0.57929 v 0.47698 h -0.47697 c -0.32105,0 -0.5793,0.25824 -0.5793,0.57929 v 0.34571 c 0,0.32105 0.25825,0.5793 0.5793,0.5793 h 0.47697 v 0.47697 c 0,0.32105 0.25825,0.57929 0.57929,0.57929 h 0.34572 c 0.32104,0 0.57929,-0.25824 0.57929,-0.57929 v -0.47697 h 0.47697 c 0.321051,0 0.579301,-0.25825 0.579301,-0.5793 v -0.34571 c 0,-0.32105 -0.25825,-0.57929 -0.579301,-0.57929 h -0.47697 v -0.47698 c 0,-0.32104 -0.25825,-0.57929 -0.57929,-0.57929 z"/><path fill="#d85750" d="m 11.749859,286.03599 a 0.52921956,0.52921956 0 0 0 -0.527099,0.52916 v 0.5271 h -0.676445 v 0.25115 c 0,0.32105 0.258253,0.57929 0.579293,0.57929 h 0.346232 c 0.32104,0 0.578776,-0.25824 0.578776,-0.57929 v -0.47697 h 0.476974 c 0.321051,0 0.579809,-0.25825 0.579809,-0.5793 v -0.25114 z"/></g></svg>