<?xml version="1.0" encoding="UTF-8"?>
<svg width="22px" height="20px" viewBox="0 0 22 20" version="1.1" xmlns="http://www.w3.org/2000/svg" xmlns:xlink="http://www.w3.org/1999/xlink">
    <title>queue2</title>
    <g id="Page-1" stroke="none" stroke-width="1" fill="none" fill-rule="evenodd">
        <g id="Apple-TV" transform="translate(-520, -393)" fill-rule="nonzero">
            <g id="queue2" transform="translate(520, 393)">
                <path d="M2.12213483,10.576388 C2.12128273,10.5681032 2.11997504,10.5599618 2.1194351,10.5515926 C2.03926991,9.32530658 2.11585795,8.48943563 2.2483642,7.91999454 C2.17383471,7.77493453 2.10595331,7.70813302 2.07551382,7.68321955 C2.02955931,7.6456089 1.97456913,7.6266939 1.91947772,7.62504032 C1.91078795,7.62412072 1.90197164,7.62360608 1.89302877,7.62360608 L1.81522586,7.62360608 C1.65499673,7.72008778 1.46813305,7.77664717 1.26785508,7.77664717 C1.0675771,7.77664717 0.880704988,7.72008778 0.720458986,7.62360608 L0.642656068,7.62360608 C0.633679457,7.62360608 0.624863143,7.62412916 0.616173379,7.62504032 C0.561081961,7.62670234 0.506091783,7.6456089 0.460137273,7.68321955 C0.36330124,7.76250732 -0.112830346,8.26469133 0.0247716487,10.3702634 C0.0337145128,10.5072073 0.147558861,10.6123113 0.282857646,10.6123113 C0.288543958,10.6123113 0.294238706,10.6121257 0.299992511,10.611746 C0.351574277,10.6083798 0.398473694,10.589971 0.437096743,10.5613201 L0.613330223,13.280727 C0.627613496,13.5012951 0.818037446,13.6684086 1.03848748,13.6541253 C1.12612755,13.6484474 1.20507786,13.6146501 1.26784664,13.56252 C1.33061542,13.6146501 1.40956573,13.6484558 1.49720579,13.6541253 C1.71768114,13.6684086 1.90807135,13.5012951 1.92236306,13.280727 L2.09859654,10.561337 C2.10604611,10.566863 2.11407781,10.571655 2.12213483,10.576388 Z" id="Path" fill="#55A1FF"></path>
                <circle id="Oval" fill="#488BFF" transform="translate(1.2678, 6.711) rotate(-45.001) translate(-1.2678, -6.711)" cx="1.2678388" cy="6.71096932" r="1"></circle>
                <path d="M2.4561255,10.5295814 C2.46765842,10.7061017 2.61438888,10.8415776 2.7887916,10.8415776 C2.79612307,10.8415776 2.80345453,10.841333 2.81087036,10.8408436 C2.87735127,10.8365072 2.93780841,10.8127749 2.98759316,10.7758476 L3.21475035,14.2810707 C3.23316759,14.5653863 3.47861546,14.7807912 3.76275388,14.7623739 C3.87572081,14.7550594 3.97748386,14.7114924 4.05839147,14.6442944 C4.13929908,14.7114924 4.24106212,14.7550594 4.35402906,14.7623739 C4.63821809,14.7807912 4.88362379,14.5653863 4.90203259,14.2810707 L5.11225739,11.0371395 C5.06356096,10.945433 5.03256466,10.8427925 5.02545255,10.7332509 C4.91382704,9.02608341 5.04296706,7.93075972 5.23978601,7.22985852 C5.17837553,7.1378567 5.1269878,7.08860345 5.0994421,7.06606069 C5.04020828,7.01758361 4.96932342,6.99320165 4.89832046,6.99105874 C4.88711656,6.98987761 4.87575238,6.98920267 4.86421946,6.98920267 L4.55272938,6.98920267 C4.40059945,7.05338038 4.23357037,7.08895779 4.05836616,7.08895779 C3.88316195,7.08895779 3.71613287,7.05337194 3.56400294,6.98920267 L3.25253817,6.98920267 C3.2409715,6.98920267 3.22959888,6.98986917 3.21839499,6.99105874 C3.14738358,6.99319322 3.07650717,7.01757518 3.01727335,7.06606069 C2.89246977,7.16826244 2.27875306,7.81557394 2.4561255,10.5295814 Z" id="Path" fill="#55A1FF"></path>
                <circle id="Oval" fill="#488BFF" transform="translate(4.0586, 5.8126) rotate(-13.286) translate(-4.0586, -5.8126)" cx="4.05858016" cy="5.81260194" r="1"></circle>
                <path d="M5.36216826,10.7113577 C5.37664557,10.9330226 5.56091076,11.103148 5.77991813,11.103148 C5.78912253,11.103148 5.79833537,11.1028358 5.80764944,11.1022284 C5.89113867,11.0967783 5.96705178,11.06698 6.02956746,11.0206037 L6.31481952,15.4223404 C6.33793598,15.7793716 6.64616107,16.0498595 7.00298979,16.0267431 C7.1448523,16.017564 7.27264245,15.9628438 7.37423676,15.8784603 C7.47583951,15.9628438 7.60362966,16.0175555 7.74549217,16.0267431 C8.10236307,16.0498595 8.41053755,15.7793716 8.43366244,15.4223404 L8.70898455,11.1738725 C8.69108195,11.1131539 8.67884878,11.0499717 8.67457139,10.9844272 C8.53897732,8.90982617 8.68778321,7.54908503 8.91624808,6.66248441 C8.81396196,6.48461422 8.72459238,6.39723569 8.68157382,6.36201261 C8.60718776,6.30113365 8.51818095,6.27051699 8.42900541,6.26783413 C8.41494149,6.26634928 8.40066665,6.26550561 8.38618933,6.26550561 L7.71087654,6.26550561 C7.60242322,6.29022504 7.49005529,6.30447456 7.37421989,6.30447456 C7.25838449,6.30447456 7.14601656,6.29022504 7.03756324,6.26550561 L6.36229263,6.26550561 C6.34776469,6.26550561 6.33348985,6.26634928 6.31942594,6.26783413 C6.23025883,6.27051699 6.14124359,6.30113365 6.06685752,6.36201261 C5.91011273,6.49033428 5.13943188,7.30319845 5.36216826,10.7113577 Z" id="Path" fill="#55A1FF"></path>
                <circle id="Oval" fill="#488BFF" cx="7.37423676" cy="4.78831319" r="1.17868637"></circle>
                <path d="M9.0112871,10.9624666 C9.02983089,11.2464953 9.26595625,11.4644903 9.54657658,11.4644903 C9.55837103,11.4644903 9.57017393,11.4641022 9.58210337,11.4633092 C9.68908871,11.4563236 9.78636345,11.4181477 9.86646958,11.3587198 L10.2319796,16.998959 C10.2616092,17.4564371 10.6565548,17.803049 11.1137798,17.7734194 C11.2955477,17.7616503 11.4593034,17.6915416 11.5894811,17.5834173 C11.7196673,17.69155 11.8834145,17.7616587 12.0651824,17.7734194 C12.5224665,17.803049 12.917353,17.4564455 12.9469826,16.998959 L13.2493864,12.3326315 C12.8986573,12.1909124 12.6425202,11.8574701 12.6165606,11.4593018 C12.4027333,8.18738617 12.7499443,6.34333384 13.1482307,5.31875158 C13.0820029,5.28842177 13.0118183,5.27078914 12.9410178,5.26865467 C12.9229887,5.26674798 12.904698,5.26566809 12.8861542,5.26566809 L10.292808,5.26566809 C10.2741967,5.26566809 10.255906,5.26674798 10.2378769,5.26865467 C10.1236275,5.27209683 10.0095638,5.31132732 9.91425484,5.38933271 C9.71340318,5.55378861 8.72587475,6.59536231 9.0112871,10.9624666 Z" id="Path" fill="#55A1FF"></path>
                <circle id="Oval" fill="#488BFF" cx="11.5894473" cy="3.37289402" r="1.51033164"></circle>
                <path d="M12.9533354,11.4373242 C12.9766543,11.7943133 13.273414,12.0683024 13.6261256,12.0683024 C13.6409573,12.0683024 13.6557889,12.0678046 13.6707809,12.0668175 C13.8052444,12.0580434 13.9275086,12.0100472 14.0281833,11.9353659 L14.487585,19.0243911 C14.5248244,19.5993836 15.0212208,20.0350192 15.5958842,19.9977797 C15.8243491,19.9829902 16.0301615,19.8948777 16.1937822,19.7589715 C16.3574113,19.8948693 16.5632153,19.9829902 16.7916802,19.9977797 C17.3664279,20.0350192 17.86274,19.5993836 17.8999794,19.0243911 L18.3593811,11.935408 C18.4600643,12.0100978 18.5823284,12.0580434 18.7167076,12.0668175 C18.7316995,12.0678046 18.7465312,12.0683024 18.7613629,12.0683024 C19.1140745,12.0683024 19.4108341,11.7943133 19.4341531,11.4373242 C19.7928801,5.9484642 18.551678,4.63933857 18.2992446,4.4326656 C18.1794524,4.33462313 18.0360966,4.28531083 17.8924877,4.28098282 C17.8698268,4.27859524 17.8468453,4.27723694 17.8235264,4.27723694 L14.5640464,4.27723694 C14.5406516,4.27723694 14.5176617,4.27859524 14.4950008,4.28098282 C14.3514003,4.28531083 14.2080361,4.33461469 14.0882439,4.4326656 C13.835802,4.63933857 12.5946084,5.9484642 12.9533354,11.4373242 Z" id="Path" fill="#FFC861"></path>
                <path d="M14.9533354,11.4373242 C14.9766543,11.7943133 15.273414,12.0683024 15.6261256,12.0683024 C15.6409573,12.0683024 15.6557889,12.0678046 15.6707809,12.0668175 C15.8052444,12.0580434 15.9275086,12.0100472 16.0281833,11.9353659 L16.487585,19.0243911 C16.5248244,19.5993836 17.0212208,20.0350192 17.5958842,19.9977797 C17.8243491,19.9829902 18.0301615,19.8948777 18.1937822,19.7589715 C18.3574113,19.8948693 18.5632153,19.9829902 18.7916802,19.9977797 C19.3664279,20.0350192 19.86274,19.5993836 19.8999794,19.0243911 L20.3593811,11.935408 C20.4600643,12.0100978 20.5823284,12.0580434 20.7167076,12.0668175 C20.7316995,12.0678046 20.7465312,12.0683024 20.7613629,12.0683024 C21.1140745,12.0683024 21.4108341,11.7943133 21.4341531,11.4373242 C21.7928801,5.9484642 20.551678,4.63933857 20.2992446,4.4326656 C20.1794524,4.33462313 20.0360966,4.28531083 19.8924877,4.28098282 C19.8698268,4.27859524 19.8468453,4.27723694 19.8235264,4.27723694 L16.5640464,4.27723694 C16.5406516,4.27723694 16.5176617,4.27859524 16.4950008,4.28098282 C16.3514003,4.28531083 16.2080361,4.33461469 16.0882439,4.4326656 C15.835802,4.63933857 14.5946084,5.9484642 14.9533354,11.4373242 Z" id="Path"></path>
                <circle id="Oval" fill="#488BFF" cx="16.1937569" cy="1.89824947" r="1.89824947"></circle>
            </g>
        </g>
    </g>
</svg>