<svg xmlns="http://www.w3.org/2000/svg" data-name="Layer 1" viewBox="0 0 24 24"><path fill="#028F85" d="M19 9h-5a2 2 0 0 1-2-2V2Z"/><path fill="#A9E4E0" d="M14 9a2 2 0 0 1-2-2V2H6a2.996 2.996 0 0 0-3 3v14a2.996 2.996 0 0 0 3 3h10a2.996 2.996 0 0 0 3-3V9Z"/><path fill="#028F85" d="M15.5 18h-.033a1.003 1.003 0 0 1-.72-.341l-2.796-3.196-1.244 1.244A1 1 0 0 1 10 16H8a1 1 0 0 1 0-2h1.586l1.707-1.707a.968.968 0 0 1 .74-.292 1.003 1.003 0 0 1 .72.34l2.796 3.196 1.244-1.244A1 1 0 0 1 17.5 14H20a1 1 0 0 1 0 2h-2.086l-1.707 1.707A.999.999 0 0 1 15.5 18Z"/></svg>