<?xml version="1.0" encoding="UTF-8"?>
<svg width="20px" height="20px" viewBox="0 0 20 20" version="1.1" xmlns="http://www.w3.org/2000/svg" xmlns:xlink="http://www.w3.org/1999/xlink">
    <title>setting_alt</title>
    <g id="Page-1" stroke="none" stroke-width="1" fill="none" fill-rule="evenodd">
        <g id="Apple-TV" transform="translate(-819, -442)" fill-rule="nonzero">
            <g id="setting_alt" transform="translate(819, 442)">
                <path d="M9.79435547,14 C7.58521647,14 5.79435547,12.209139 5.79435547,10 C5.79435547,7.790861 7.58521647,6 9.79435547,6 C12.0034945,6 13.7943555,7.790861 13.7943555,10 C13.7918315,12.2080927 12.0024482,13.9974761 9.79435547,14 L9.79435547,14 Z M9.79435547,8 C8.68978597,8 7.79435547,8.8954305 7.79435547,10 C7.79435547,11.1045695 8.68978597,12 9.79435547,12 C10.898925,12 11.7943555,11.1045695 11.7943555,10 C11.793253,8.89588748 10.898468,8.00110246 9.79435547,8 Z" id="Shape" fill="#028F85"></path>
                <path d="M18.0585155,10.66357 C17.7230667,10.2847812 17.7230667,9.71521882 18.0585155,9.33643 L19.3363455,7.89551 C19.6218548,7.57341677 19.6694415,7.10484608 19.4545155,6.73193 L17.4545155,3.26807 C17.2385965,2.89611962 16.8097014,2.70307038 16.3881055,2.78807 L14.5008955,3.1743 C14.0053571,3.27552786 13.5122286,2.99092269 13.3519755,2.51121 L12.7430855,0.68406 C12.6071236,0.275545335 12.2249015,0 11.7943555,0 L7.79435547,0 C7.36399924,0 6.98192092,0.275386567 6.84562547,0.68359 L6.23624547,2.51123 C6.07486311,2.99025722 5.58230828,3.27441012 5.08683547,3.17432 L3.20011547,2.78809 C2.77862234,2.7039763 2.35022681,2.8968025 2.13371547,3.26809 L0.133715469,6.73195 C-0.0812133157,7.10486399 -0.0336306036,7.5734345 0.251875469,7.89553 L1.52970547,9.33645 C1.86515421,9.71523882 1.86515421,10.2848012 1.52970547,10.66359 L0.251875469,12.10449 C-0.0336306036,12.4265855 -0.0812133157,12.895156 0.133715469,13.26807 L2.13371547,16.73193 C2.34875928,17.105081 2.77878787,17.2983518 3.20060547,17.21143 L5.08683547,16.82568 C5.58285632,16.7231165 6.07703744,17.0084183 6.23624547,17.48926 L6.84562547,19.31641 C6.98192092,19.7246134 7.36399924,20 7.79435547,20 L11.7943555,20 C12.2249068,20 12.6071305,19.7244426 12.7430855,19.31592 L13.3519755,17.48877 C13.5131885,17.009804 14.0054609,16.7254873 14.5008955,16.8252 L16.3876155,17.21143 C16.8095276,17.2991895 17.2400327,17.1057063 17.4545155,16.73193 L19.4545155,13.26807 C19.6694415,12.8951539 19.6218548,12.4265832 19.3363455,12.10449 L18.0585155,10.66357 Z M9.79435547,14 C7.58521647,14 5.79435547,12.209139 5.79435547,10 C5.79435547,7.790861 7.58521647,6 9.79435547,6 C12.0034945,6 13.7943555,7.790861 13.7943555,10 C13.7918315,12.2080927 12.0024482,13.9974761 9.79435547,14 L9.79435547,14 Z" id="Shape" fill="#A9E4E0"></path>
            </g>
        </g>
    </g>
</svg>