<?xml version="1.0" encoding="UTF-8"?>
<svg width="21px" height="21px" viewBox="0 0 21 21" version="1.1" xmlns="http://www.w3.org/2000/svg" xmlns:xlink="http://www.w3.org/1999/xlink">
    <title>suntikan</title>
    <g id="Page-1" stroke="none" stroke-width="1" fill="none" fill-rule="evenodd">
        <g id="Apple-TV" transform="translate(-822, -406)" fill-rule="nonzero">
            <g id="suntikan" transform="translate(822.5123, 406.9287)">
                <path d="M15.452712,1.71334648 C15.0622122,1.32296454 14.4292119,1.32296454 14.038712,1.71334648 L12.623712,3.12734648 L11.916712,2.42034648 C11.5262122,2.02996454 10.8932119,2.02996454 10.502712,2.42034648 L2.72371202,10.1983465 L2.01671202,9.49134648 C1.76394662,9.2387597 1.39562831,9.14020862 1.05049904,9.2328165 C0.70536977,9.32542437 0.435862889,9.59512185 0.343499031,9.94031651 C0.251135173,10.2855112 0.349946607,10.6537597 0.602712021,10.9063465 L2.01671202,12.3203465 L7.67471202,17.9783465 L9.08871202,19.3923465 C9.48109091,19.7713187 10.1047968,19.7658988 10.4905306,19.3801651 C10.8762644,18.9944313 10.8816842,18.3707254 10.502712,17.9783465 L9.79571202,17.2713465 L17.573712,9.49234648 C17.963428,9.1019614 17.963428,8.46973155 17.573712,8.07934648 L16.866712,7.37134648 L18.280712,5.95734648 C18.671094,5.56684662 18.671094,4.93384633 18.280712,4.54334648 L15.452712,1.71334648 Z M11.210712,13.0273465 L6.96671202,8.78434648 L11.209712,4.54134648 L15.452712,8.78434648 L11.209712,13.0273465 L11.210712,13.0273465 Z" id="Shape" fill="#78D5CE"></path>
                <path d="M19.694712,0.286346476 C19.3006325,-0.100468712 18.6676129,-0.0946488711 18.280712,0.299346476 L16.160712,2.42034648 L17.573712,3.83434648 L19.694712,1.71334648 L19.707712,1.70034648 C20.0945272,1.30626699 20.0887074,0.673247367 19.694712,0.286346476 L19.694712,0.286346476 Z" id="Path" fill="#028F85"></path>
                <polygon id="Path" fill="#A9E4E0" points="14.037712 4.54234648 15.452712 5.95634648 16.159712 5.24934648 14.745712 3.83434648"></polygon>
                <polygon id="Path" fill="#A9E4E0" transform="translate(6.9677, 13.0283) rotate(-45.049) translate(-6.9677, -13.0283)" points="5.96771202 12.0283465 7.96771202 12.0283465 7.96771202 14.0283465 5.96771202 14.0283465"></polygon>
                <polygon id="Path" fill="#A9E4E0" transform="translate(11.2101, 8.7847) rotate(-45) translate(-11.2101, -8.7847)" points="8.21006557 5.78420003 14.2100656 5.78420003 14.2100656 11.7852 8.21006557 11.7852"></polygon>
                <path d="M4.52271202,18.2993465 L3.82071202,17.5963465 L5.55571202,15.8583465 L4.14071202,14.4443465 L2.40571202,16.1823465 L1.69471202,15.4703465 C1.30233313,15.0913743 0.678627244,15.0967941 0.292893445,15.4825279 C-0.0928403531,15.8682617 -0.0982601888,16.4919676 0.280712021,16.8843465 L3.10871202,19.7133465 C3.35978649,19.9733031 3.73158991,20.0775591 4.08121934,19.9860436 C4.43084878,19.8945282 4.70389374,19.6214832 4.79540918,19.2718538 C4.88692462,18.9222244 4.78266861,18.5504209 4.52271202,18.2993465 L4.52271202,18.2993465 Z" id="Path" fill="#028F85"></path>
            </g>
        </g>
    </g>
</svg>