<?xml version="1.0" encoding="UTF-8"?>
<svg width="283px" height="193px" viewBox="0 0 283 193" version="1.1" xmlns="http://www.w3.org/2000/svg" xmlns:xlink="http://www.w3.org/1999/xlink">
    <title>path4</title>
    <g id="Page-1" stroke="none" stroke-width="1" fill="none" fill-rule="evenodd">
        <g id="Logo" transform="translate(-718, -291)" fill="#FFFFFF" stroke="#FFFFFF" stroke-width="2">
            <g id="logo" transform="translate(671.5617, 199.7914)">
                <path d="M105.188326,204.7396 C104.425326,205.7128 103.610626,206.6341 102.728126,207.4779 C101.656326,208.5044 100.518326,209.3482 99.2769262,210.0109 C98.0338262,210.6721 96.7730262,211.0131 95.4459262,211.0131 C93.3218262,211.0131 91.5097262,210.6026 90.0161262,209.7814 C88.5419262,208.9376 87.3231262,208.0259 86.3758262,206.9995 C85.7212262,208.5739 84.9226262,209.9867 83.9754262,211.2879 C83.0281262,212.5649 81.9984262,213.6819 80.8410262,214.6405 C79.6837262,215.599 78.4616262,216.3507 77.1555262,216.8987 C75.8720262,217.424 74.5465262,217.6972 73.2000262,217.6972 C70.6945262,217.6972 68.5494262,216.8987 66.7794262,215.279 C65.0126262,213.6819 63.5383262,211.5385 62.3599262,208.8471 C61.7101262,207.3244 61.1330262,205.6707 60.6368262,203.8845 C57.9227262,209.9851 54.5168262,217.8362 54.1159262,222.2961 C53.9672262,223.9497 52.9149262,229.5233 55.3978262,230.8956 C61.3464262,234.1835 67.9578262,235.4347 83.8816262,238.2198 C85.8456262,238.5642 87.4799262,238.6919 89.4778262,238.9359 C94.0169262,239.492 101.591726,240.1903 105.665226,239.2899 C106.058026,237.0431 106.711026,233.0617 108.827026,230.8488 C112.897326,226.5926 116.138326,224.5591 121.799226,224.5446 C135.644226,224.509 143.526126,240.5476 132.682926,251.8854 C127.418026,257.3911 116.106026,256.9175 110.682726,251.7303 C108.894926,250.02 108.077026,248.2532 106.940626,246.5139 C103.596126,246.6804 106.940626,246.5139 103.596126,246.6804 C101.457526,246.9811 89.9191262,246.223 87.3991262,245.9174 C85.1069262,245.6378 83.3272262,245.3388 80.9607262,244.9201 L71.1471262,242.6732 C70.2806262,242.4485 65.0449262,241.0858 59.0429262,239.4079 C50.7181262,237.0819 49.6157262,233.7212 48.4922262,231.3806 C47.5547262,229.3503 48.1592262,225.841 48.6393262,223.447 C50.0780262,216.286 54.3035262,207.1482 59.0737262,196.174 C58.6792262,193.6151 58.3592262,190.9658 58.1102262,188.2258 C57.7514262,184.3027 57.5412262,180.3343 57.4572262,176.319 C57.3941262,172.3279 57.3521262,168.5179 57.3521262,164.8922 C57.3521262,157.9802 57.5412262,152.0041 57.8985262,146.9624 C58.2557262,141.8996 58.7617262,137.5885 59.4131262,134.0517 C60.0452262,130.5165 60.7823262,127.6424 61.6244262,125.4295 C62.4666262,123.2181 63.3702262,121.5063 64.3175262,120.2972 C65.2647262,119.0654 66.2120262,118.2216 67.2013262,117.7884 C68.1905262,117.3552 69.1588262,117.1273 70.1061262,117.1273 C71.6207262,117.1273 72.9688262,117.6058 74.1456262,118.587 C75.3030262,119.5682 76.2939262,120.9357 77.1151262,122.6928 C77.9136262,124.4499 78.5246262,126.5933 78.9255262,129.0794 C79.3248262,131.5656 79.5349262,134.3038 79.5349262,137.2911 C79.5349262,142.058 79.0710262,146.985 78.1238262,152.072 C77.1765262,157.159 75.9577262,162.2234 74.4625262,167.2635 C72.9688262,172.3279 71.2845262,177.3002 69.4320262,182.1819 C67.5811262,187.041 65.7497262,191.6705 63.9392262,196.0512 C64.1914262,198.2172 64.5713262,200.2928 65.0546262,202.2778 C65.5395262,204.2628 66.1910262,206.0409 66.9701262,207.5701 C67.7476262,209.0976 68.6529262,210.3294 69.7278262,211.2427 C70.8011262,212.1544 72.0426262,212.6102 73.4311262,212.6102 C74.8407262,212.6102 76.1468262,212.177 77.3866262,211.3106 C78.6297262,210.4441 79.6837262,209.3029 80.5873262,207.9111 C81.4925262,206.4967 82.2086262,204.9013 82.7129262,203.1216 C83.2383262,201.3418 83.4921262,199.5168 83.4921262,197.6466 C83.4921262,196.3922 83.3870262,195.1378 83.1558262,193.8608 C82.9247262,192.6065 82.5868262,191.4652 82.1019262,190.4614 C81.6186262,189.4576 81.0302262,188.6364 80.3351262,188.0206 C79.6400262,187.4047 78.7978262,187.0862 77.8102262,187.0862 C77.0731262,187.0862 76.5041262,187.2463 76.0822262,187.5873 C75.6829262,187.93 75.3677262,188.2954 75.1575262,188.7286 C74.9684262,189.1618 74.8407262,189.5724 74.8003262,189.9603 C74.7567262,190.3483 74.7356262,190.6214 74.7356262,190.7588 C74.7356262,191.3747 74.8617262,192.0132 75.0929262,192.6291 C75.3467262,193.245 75.8300262,193.8156 76.5251262,194.2941 C77.2202262,194.842 77.5774262,195.5711 77.5774262,196.507 C77.5774262,197.2586 77.3462262,197.8745 76.8629262,198.3094 C76.3780262,198.7426 75.8510262,198.9705 75.2836262,198.9705 C74.4625262,198.9705 73.7464262,198.6957 73.0949262,198.172 C72.4629262,197.6466 71.9149262,196.9628 71.4526262,196.1417 C71.0113262,195.3205 70.6540262,194.4315 70.4229262,193.4955 C70.1691262,192.5612 70.0430262,191.6932 70.0430262,190.8946 C70.0430262,189.595 70.2532262,188.4085 70.6540262,187.3142 C71.0743262,186.2198 71.6417262,185.2839 72.3578262,184.508 C73.0739262,183.7321 73.8951262,183.1405 74.8213262,182.7056 C75.7475262,182.2724 76.7142262,182.0671 77.7455262,182.0671 C79.5139262,182.0671 81.0512262,182.5246 82.3557262,183.4136 C83.6375262,184.3027 84.7125262,185.4665 85.5757262,186.9488 C86.4373262,188.4311 87.0903262,190.0961 87.4912262,191.968 C87.9115262,193.8382 88.1216262,195.7311 88.1216262,197.6466 C88.1216262,198.7652 88.0586262,199.8369 87.9325262,200.9086 C88.0796262,201.2739 88.3528262,201.7524 88.7310262,202.323 C89.0899262,202.8936 89.5958262,203.4643 90.2053262,203.988 C90.8147262,204.5133 91.5728262,204.9918 92.4360262,205.4024 C93.2992262,205.7903 94.2885262,205.9956 95.4459262,205.9956 C96.4351262,205.9956 97.4454262,205.5851 98.4977262,204.7639 C99.5501262,203.9427 100.560426,202.9163 101.528626,201.6845 C102.496926,200.4754 103.381126,199.1531 104.202326,197.7387 C105.021826,196.347 105.716926,195.0473 106.243926,193.8382 C106.433026,193.405 106.727226,193.0397 107.105526,192.7891 C107.197626,192.7245 107.294626,192.6679 107.394826,192.621 C108.374426,190.6037 109.547926,188.8724 110.915526,187.4273 C112.598226,185.6266 114.450726,184.3027 116.492326,183.4136 C118.533926,182.5246 120.491426,182.0671 122.385926,182.0671 C123.667826,182.0671 124.826826,182.2498 125.900226,182.6377 C126.973526,183.0257 127.878726,183.4363 128.636826,183.8695 C129.395026,184.3253 129.983426,184.7359 130.403626,185.1239 C130.804526,185.4892 131.035726,185.6945 131.077726,185.7397 C131.519026,186.3103 131.751826,186.9262 131.751826,187.5421 C131.751826,188.2032 131.519026,188.7965 131.077726,189.3218 C130.634826,189.8455 130.088426,190.0961 129.477426,190.0961 C128.826026,190.0961 128.258626,189.8455 127.815726,189.3671 C127.731626,189.2749 127.542526,189.1165 127.246726,188.8644 C126.973526,188.6138 126.574226,188.3406 126.089326,188.0901 C125.606026,187.8153 125.017626,187.5873 124.322526,187.3821 C123.648426,187.1768 122.869326,187.0862 122.007726,187.0862 C120.743626,187.0862 119.397126,187.4047 117.943926,188.0206 C116.492326,188.6364 115.187826,189.6176 113.986826,190.9173 C112.808426,192.2411 111.820726,193.8835 110.999526,195.8685 C110.199426,197.8519 109.798526,200.2022 109.798526,202.9163 C109.798526,203.7601 109.884226,204.6265 110.052326,205.4945 C110.220426,206.361 110.514626,207.1595 110.915526,207.8659 C111.314726,208.5739 111.882126,209.1655 112.577226,209.6004 C113.272326,210.0562 114.135526,210.2841 115.166826,210.2841 C115.902326,210.2841 116.765526,210.0109 117.733726,209.463 C118.702026,208.9376 119.628226,208.1164 120.512526,206.9995 C121.395126,205.8809 122.196826,204.4907 122.911326,202.7789 C123.627426,201.0913 124.131726,199.0836 124.425926,196.7802 C124.490626,196.1643 124.763826,195.6406 125.227726,195.2057 C125.669026,194.7725 126.215426,194.5672 126.826426,194.5672 C127.393826,194.5672 127.899726,194.8194 128.341026,195.2979 C128.761326,195.799 128.994126,196.3696 129.036126,196.9855 C129.078126,197.8293 129.163826,199.0157 129.288326,200.5433 C129.416026,202.0725 129.687526,203.6 130.130526,205.1292 C130.552426,206.6568 131.203826,207.958 132.067026,209.075 C132.928626,210.192 134.108626,210.74 135.645926,210.74 C136.633526,210.74 137.601826,210.4441 138.570026,209.8735 C139.538326,209.3029 140.485626,208.527 141.411826,207.5701 C142.338026,206.6115 143.222226,205.5172 144.062826,204.2854 C144.906626,203.0763 145.684126,201.8446 146.377626,200.5902 C147.072726,199.3358 147.683726,198.1493 148.209126,196.9855 C148.757026,195.8216 149.219426,194.8194 149.576626,193.974 C149.788426,193.4729 150.082526,193.0849 150.462426,192.8344 L150.525526,192.7924 C151.291726,190.7799 151.894626,188.8466 152.335926,186.9941 C152.859626,184.7828 153.260526,182.843 153.533726,181.1781 C153.806926,179.5131 153.955626,178.1666 153.996026,177.187 C154.039726,176.2058 154.060726,175.7031 154.060726,175.6578 C154.060726,174.9967 154.291826,174.4035 154.733126,173.925 C155.197126,173.4449 155.766126,173.1944 156.417526,173.1944 C157.026926,173.1944 157.574926,173.4223 158.017826,173.8781 C158.459126,174.3582 158.690326,174.9514 158.690326,175.6578 L158.690326,196.1643 C159.637526,194.4315 160.584826,192.7196 161.532026,191.032 C162.479326,189.3218 163.466926,187.8153 164.520926,186.493 C165.573226,185.1465 166.709626,184.0748 167.909026,183.2536 C169.108426,182.4098 170.454926,181.9992 171.950226,181.9992 C173.340326,181.9992 174.622226,182.3646 175.781226,183.0709 C176.938626,183.779 177.906926,184.7585 178.726426,186.0145 C179.547626,187.2689 180.179626,188.7512 180.599926,190.4614 C181.041226,192.1733 181.252926,194.0209 181.252926,195.9816 C181.252926,200.0648 180.578926,203.5774 179.232426,206.4741 C177.864826,209.3708 176.201526,211.5611 174.222926,213.0903 L174.476726,213.0903 C176.894926,213.0903 179.106326,212.4971 181.105826,211.3106 C183.105426,210.1241 184.894926,208.6192 186.493526,206.7715 C188.114926,204.9239 189.545426,202.8484 190.807926,200.5902 C192.093026,198.3094 193.208426,196.0964 194.197626,193.974 C194.327026,193.6669 194.485426,193.4034 194.682626,193.1868 C194.795726,192.5402 194.933126,191.9146 195.101226,191.3052 C195.607226,189.3897 196.342726,187.7247 197.311026,186.2877 C198.279226,184.8507 199.436626,183.7321 200.762126,182.9352 C202.108626,182.1366 203.582926,181.7487 205.181626,181.7487 C206.128826,181.7487 207.055026,181.954 207.981326,182.3646 C208.907526,182.7978 209.748126,183.391 210.485226,184.1895 C211.222326,184.9638 211.831726,185.8998 212.274626,187.0167 C212.717526,188.1353 212.948726,189.3897 212.948726,190.8267 C212.948726,192.6517 212.654526,194.3619 212.085526,195.9816 C211.518126,197.5787 210.718026,199.061 209.707726,200.4528 C208.697426,201.8446 207.498026,203.0989 206.107826,204.2628 C204.698226,205.425 203.204626,206.4288 201.604326,207.2726 C202.467526,208.5739 203.561926,209.6004 204.929426,210.3746 C206.296926,211.1505 207.960326,211.5385 209.917826,211.5385 C211.938426,211.5385 213.769926,211.0131 215.410626,209.9641 C217.052926,208.9376 218.546526,207.5701 219.914126,205.8582 C221.283226,204.1706 222.482626,202.2778 223.556026,200.1796 C224.629326,198.0798 225.597626,195.9816 226.460826,193.9061 C226.561026,193.6539 226.690326,193.426 226.845526,193.2304 C226.982926,192.8344 227.138126,192.2945 227.302926,191.6253 C227.553526,190.6893 227.870326,189.2523 228.229226,187.2915 C227.534126,187.2915 226.818026,187.2689 226.080926,187.222 C225.345426,187.1768 224.650326,187.0167 224.019926,186.7436 C223.366826,186.493 222.839926,186.0598 222.440626,185.4892 C222.039726,184.9186 221.829626,184.0974 221.829626,183.0709 C221.829626,182.3193 222.018726,181.2928 222.398626,179.9916 C222.797826,178.6919 223.324826,177.4376 223.976326,176.1832 C224.629326,174.9288 225.387426,173.8555 226.207026,172.9438 C227.028126,172.0305 227.849326,171.5747 228.670526,171.5747 C229.617726,171.5747 230.374226,171.9626 230.985326,172.7159 C231.573726,173.4675 232.037626,174.4035 232.375426,175.4978 C232.689026,176.5711 232.921826,177.7334 233.068926,178.9425 C233.216026,180.1516 233.301726,181.1781 233.301726,182.0671 C233.995126,182.0671 234.669226,182.0671 235.362726,182.0445 C236.036726,182.0219 236.688226,181.9992 237.299226,181.9992 C239.635026,181.9992 241.424426,182.5698 242.665926,183.6868 C243.908926,184.8054 244.518426,186.6304 244.518426,189.1618 C244.518426,190.1882 244.453726,191.2373 244.329226,192.3559 C244.201526,193.4729 244.054426,194.6367 243.886326,195.799 C243.739226,196.9855 243.592126,198.1493 243.466026,199.3116 C243.340026,200.4754 243.275326,201.6166 243.275326,202.7336 C243.275326,204.3307 243.487026,205.6529 243.886326,206.702 C244.308226,207.7527 244.833626,208.5965 245.444626,209.2124 C246.054026,209.8283 246.707126,210.2615 247.402126,210.512 C248.097226,210.7626 248.748726,210.8774 249.316026,210.8774 C251.086126,210.8774 252.747826,210.2615 254.327126,209.0071 C255.883826,207.7527 257.314326,206.2462 258.639826,204.4907 C259.944326,202.7336 261.124426,200.8634 262.176726,198.9252 C263.214526,196.9919 264.085726,195.3027 264.776026,193.8334 C266.985726,188.6898 270.165326,179.8865 270.787626,175.459 C265.065326,175.459 259.301026,172.2762 254.708626,169.512 C248.863426,165.9914 241.560226,159.3865 237.396226,154.0296 C236.828826,153.2989 236.405326,152.9239 235.818526,152.1836 C232.186326,147.5944 236.093326,150.8581 231.832326,145.1568 C230.223926,143.0069 228.942026,140.7277 227.569726,138.408 C226.672526,136.8934 225.759226,135.3594 225.015626,133.8642 L222.673426,128.8661 C219.529326,121.2994 215.717726,110.4335 219.868826,102.2914 C220.880726,100.308 222.049426,99.1312 223.790426,97.8914 C225.099726,96.9603 227.962526,95.9241 229.952326,95.7318 C232.407826,95.4958 231.594726,95.9258 232.710026,94.3287 C233.243526,93.5641 234.315226,93.0032 235.532426,93 L244.356726,93 C248.577326,93.0032 249.123726,100.586 242.884126,100.586 C239.761126,100.586 233.098026,101.5721 232.115226,97.8946 C227.829926,97.8946 223.578626,99.7293 221.831226,103.5183 C219.209326,109.2018 220.909826,117.0238 222.904526,123.0048 C224.131426,126.6774 225.809326,130.6086 227.699026,133.8739 L233.730026,143.7488 C234.559326,144.9919 235.053926,146.3934 236.455426,146.8961 C236.975926,147.082 237.305726,147.1095 237.766426,147.5427 C239.164626,148.8585 241.463226,152.1464 243.191226,153.8663 C244.005926,154.6761 244.337326,155.0253 245.051826,155.9208 C245.716226,156.7549 246.260926,157.1509 247.082126,157.8056 C247.851526,158.4199 248.330026,159.0632 249.062326,159.7405 L253.405726,163.2288 C254.889626,164.3668 256.426926,165.348 258.106426,166.3599 C263.397126,169.5428 269.609226,172.1404 276.529326,170.9216 C284.210826,169.567 291.355626,165.1411 296.919526,159.9862 C299.412126,157.6763 302.541626,154.7683 304.738326,152.1415 C305.918426,150.732 307.077426,149.0169 308.406126,147.7334 C310.087226,146.1089 309.786626,147.9242 312.448926,143.9461 C313.551326,142.2989 314.467926,140.8893 315.533126,139.1985 C320.891726,130.6846 331.018926,110.1118 322.855726,101.1437 C322.485626,100.7364 321.586826,100.0978 321.071226,99.7455 C319.170226,98.4426 316.580626,97.8946 314.112326,97.8946 C313.258826,101.5559 306.773526,100.586 303.831526,100.586 C296.704526,100.586 297.664726,93.0032 302.360526,93 L311.180026,93 C312.306726,93.0032 313.241026,93.8276 313.751826,94.5825 C314.766926,96.0826 314.931826,95.5216 316.705126,95.79 C319.055426,96.1472 320.958026,96.9069 322.584226,97.9884 C327.427126,101.21 328.043026,106.0626 328.062426,111.5537 L328.062426,111.8851 C328.039826,123.4121 319.244526,138.5212 312.663926,147.5847 C312.093326,148.3703 312.256526,147.8142 312.156326,149.0363 C312.061026,150.1759 312.356826,149.5875 311.855726,150.4491 C311.853726,150.4507 311.176726,151.3107 311.099226,151.4044 C310.748426,151.8279 310.688626,151.9104 310.336226,152.3549 C309.954726,152.8366 309.775326,152.9708 309.427726,153.404 C306.464726,157.0701 303.133226,160.4954 299.501026,163.5457 C298.209426,164.6303 296.995426,165.7909 295.610126,166.7511 C294.085826,167.8067 292.837926,168.7523 291.245726,169.7287 C289.643726,170.7082 288.329626,171.3386 286.616126,172.197 C284.773326,173.12 283.510926,173.6292 281.409426,174.3323 C279.988626,174.8076 277.156526,175.459 275.438226,175.459 C274.219426,180.9518 270.585626,193.7024 268.598926,196.8141 C267.730926,198.4904 266.744826,200.3283 265.627826,202.3457 C264.386426,204.6491 262.954226,206.7942 261.355526,208.8018 C259.734226,210.8079 257.946426,212.4971 255.946826,213.8872 C253.947226,215.279 251.758526,215.9644 249.380726,215.9644 C247.906526,215.9644 246.516326,215.6669 245.190826,215.0511 C243.865326,214.4352 242.728926,213.5688 241.760726,212.4502 C240.813426,211.3106 240.034326,209.8962 239.445926,208.2312 C238.876926,206.5662 238.582726,204.6734 238.582726,202.5962 C238.582726,200.3623 238.794426,198.1493 239.214726,195.9364 C239.614026,193.7234 239.824126,191.6253 239.824126,189.6176 C239.824126,188.7738 239.656026,188.158 239.298826,187.7247 C238.939926,187.2915 238.183426,187.0862 236.984026,187.0862 C236.415026,187.0862 235.784626,187.0862 235.110526,187.0862 C234.438026,187.0862 233.700926,187.1089 232.921826,187.1541 C232.753726,188.3632 232.543526,189.4802 232.310826,190.5309 C232.058626,191.58 231.827426,192.4917 231.596326,193.2676 C231.363526,194.0435 231.174426,194.682 231.006326,195.1605 C230.838226,195.6632 230.733126,195.9364 230.691126,195.9816 C230.641026,196.111 230.586026,196.2322 230.524626,196.3453 C227.716826,202.9728 224.666526,207.9613 221.367326,211.3332 C218.021226,214.7779 214.211226,216.5334 209.980926,216.6255 C207.265226,216.6255 204.929426,216.0549 202.952426,214.9137 C200.993326,213.7741 199.373626,212.3144 198.090126,210.512 C196.805026,208.7097 195.857826,206.6568 195.248326,204.3986 C195.141726,203.9977 195.043126,203.5968 194.954126,203.1959 L194.638926,203.7601 C193.164726,206.361 191.439926,208.7097 189.461426,210.8079 C187.482826,212.9076 185.273126,214.6179 182.811226,215.9175 C180.347726,217.2414 177.611026,217.9025 174.601226,217.9025 C172.435126,217.9025 170.309426,217.5372 168.246826,216.7855 C166.205226,216.0549 164.393226,214.9137 162.815526,213.3408 C162.248126,212.8608 161.742126,212.337 161.342926,211.7664 C160.942026,211.2184 160.605826,210.6947 160.353626,210.2162 C160.269526,210.1241 160.225926,210.0336 160.225926,209.9414 C159.994726,209.5535 159.868726,209.1203 159.868726,208.6644 C159.868726,208.0938 160.057826,207.5474 160.416626,207.0674 C160.458726,206.9768 160.500726,206.9316 160.542726,206.9073 C160.584826,206.8847 160.626826,206.8394 160.668826,206.7942 C161.069726,206.4062 161.532026,206.1783 162.016926,206.133 L162.206126,206.133 C162.416226,206.133 162.563326,206.1557 162.626426,206.2009 C162.668426,206.2009 162.710426,206.2009 162.733026,206.2236 C162.752426,206.2462 162.773526,206.2688 162.815526,206.2688 C162.943226,206.2688 163.088726,206.3157 163.256826,206.4062 C163.300426,206.4515 163.342526,206.4741 163.384526,206.4741 C163.741726,206.7263 164.058526,207.0674 164.310726,207.4779 C164.583926,208.0033 164.920126,208.5044 165.279026,208.9376 C165.615226,209.2803 166.014526,209.6004 166.457426,209.8962 C166.900326,210.192 167.424026,210.3294 167.993026,210.3294 C169.024326,210.3294 170.055726,210.0109 171.087026,209.3482 C172.118326,208.687 173.044526,207.7285 173.864126,206.4741 C174.686826,205.2197 175.338326,203.7148 175.865226,201.9124 C176.392226,200.1327 176.642826,198.1493 176.642826,195.9816 C176.642826,194.3619 176.495726,192.9944 176.180526,191.8532 C175.865226,190.7362 175.485426,189.8003 175.002126,189.0939 C174.518726,188.3859 174.012826,187.8621 173.485826,187.5195 C172.960526,187.1768 172.435126,187.0167 171.950226,187.0167 C170.834826,187.0167 169.719426,187.6326 168.583126,188.8886 C167.467726,190.143 166.352326,191.7158 165.237026,193.6329 C164.121626,195.5484 163.004626,197.6692 161.931326,199.9743 C160.838526,202.3004 159.742626,204.5586 158.627226,206.7263 C158.543226,213.9567 158.438126,220.8445 158.291026,227.3912 C158.142326,233.9378 157.911126,240.006 157.553926,245.6168 C157.196626,251.2518 156.713326,256.3145 156.102326,260.8536 C155.491326,265.3926 154.650726,269.2931 153.575726,272.5325 C152.504026,275.7493 151.197926,278.2354 149.618626,279.9683 C148.062026,281.7027 146.146426,282.5692 143.894726,282.5692 C143.199626,282.5692 142.399526,282.4091 141.494226,282.1133 C140.590626,281.7932 139.727426,281.1547 138.948326,280.1978 C138.170826,279.2619 137.517726,277.8927 136.992426,276.092 C136.465426,274.3123 136.190626,271.9393 136.190626,268.9521 C136.190626,265.1647 136.612526,260.7857 137.475726,255.7908 C138.338926,250.7943 139.559326,245.5036 141.138626,239.9139 C142.716326,234.3258 144.610826,228.5776 146.797926,222.6921 C148.967226,216.8308 151.367626,211.1053 153.996026,205.5398 C153.996026,203.9654 154.018726,202.4378 154.039726,200.9086 C154.060726,199.4037 154.060726,197.944 154.060726,196.507 C153.844126,196.7786 153.608126,196.9935 153.352726,197.1568 L152.882326,198.2172 C152.355326,199.3358 151.703926,200.6354 150.903726,202.1177 C150.103626,203.6 149.177326,205.1292 148.105626,206.7263 C147.030726,208.3444 145.832826,209.8056 144.526726,211.1505 C143.201226,212.4971 141.790126,213.5914 140.275426,214.4578 C138.738226,215.3243 137.139526,215.7591 135.455126,215.7591 C133.077326,215.7591 131.056726,214.9379 129.435426,213.2713 C127.815726,211.629 126.637326,209.5535 125.900226,207.0674 C124.490626,209.6004 122.827226,211.629 120.911726,213.1129 C118.976826,214.5952 117.038726,215.3485 115.102126,215.3485 C113.587526,215.3485 112.220026,215.0511 110.976926,214.4578 C109.737126,213.842 108.704126,212.9982 107.842626,211.9038 C106.979426,210.8321 106.305326,209.5535 105.822026,208.0712 C105.493826,207.0205 105.283726,205.9132 105.188326,204.7396 L105.188326,204.7396 Z M228.796626,182.2045 C228.796626,181.9087 228.775626,181.4981 228.754526,180.9728 C228.731926,180.4474 228.691526,179.9463 228.628526,179.4678 C228.565426,178.9878 228.500826,178.5545 228.397326,178.1892 C228.290626,177.8481 228.164526,177.6655 228.059526,177.6655 C227.933426,177.6655 227.784726,177.8255 227.595526,178.1666 C227.406426,178.5093 227.196326,178.8972 227.007126,179.3757 C226.797026,179.8316 226.607926,180.3343 226.438126,180.8823 C226.292726,181.406 226.165026,181.8618 226.080926,182.2045 L228.796626,182.2045 Z M199.753426,202.9163 C201.035326,202.3457 202.194326,201.6166 203.246626,200.726 C204.277926,199.8369 205.181626,198.8557 205.918726,197.784 C206.655826,196.7123 207.244226,195.5711 207.645126,194.4088 C208.044326,193.2223 208.256126,192.0359 208.256126,190.8267 C208.256126,189.4802 207.939326,188.478 207.329826,187.7926 C206.718826,187.0862 206.004326,186.7436 205.181626,186.7436 C204.066226,186.7436 203.118926,187.0862 202.339826,187.7474 C201.562326,188.4085 200.910826,189.2992 200.425926,190.3709 C199.942626,191.4426 199.583726,192.6291 199.352626,193.9287 C199.119826,195.2526 199.016326,196.5523 199.016326,197.8519 C199.016326,198.6504 199.079426,199.4942 199.226526,200.3849 C199.373626,201.2739 199.541726,202.1177 199.753426,202.9163 L199.753426,202.9163 Z M153.871626,217.424 C151.872026,222.3284 150.040526,227.2554 148.419226,232.205 C146.797926,237.1546 145.409326,241.8989 144.294026,246.4832 C143.157626,251.0691 142.275026,255.3802 141.664026,259.3939 C141.052926,263.4092 140.737726,266.9218 140.737726,269.9559 C140.737726,270.7075 140.779826,271.5287 140.863826,272.4194 C140.949526,273.3084 141.116026,274.1522 141.369826,274.9055 C141.600926,275.6572 141.958226,276.273 142.420526,276.7984 C142.863426,277.3237 143.474426,277.5743 144.211526,277.5743 C145.558026,277.5743 146.736526,276.6383 147.724126,274.7907 C148.715026,272.9431 149.536226,270.457 150.208626,267.3097 C150.903726,264.1851 151.471126,260.5578 151.912426,256.4746 C152.355326,252.3914 152.714226,248.1255 152.987326,243.6786 C153.260526,239.2301 153.451326,234.7364 153.575726,230.22 C153.703426,225.7036 153.806926,221.4377 153.871626,217.424 L153.871626,217.424 Z M62.7608262,187.4968 C64.1720262,183.7321 65.5816262,179.8089 67.0332262,175.6805 C68.4637262,171.552 69.7472262,167.3557 70.9046262,163.0898 C72.0636262,158.824 73.0092262,154.4902 73.7464262,150.1339 C74.4835262,145.7759 74.8617262,141.4648 74.8617262,137.2232 C74.8617262,135.6261 74.7793262,133.9385 74.6306262,132.1814 C74.4835262,130.4259 74.2313262,128.8289 73.8741262,127.3466 C73.4942262,125.8627 72.9882262,124.6552 72.3578262,123.674 C71.7258262,122.6928 70.9046262,122.1917 69.9169262,122.1917 C69.6001262,122.1917 69.1798262,122.4196 68.6529262,122.8981 C68.1485262,123.3765 67.6022262,124.1977 67.0332262,125.3616 C66.4658262,126.548 65.8758262,128.1904 65.3084262,130.2885 C64.7394262,132.3641 64.2124262,135.0329 63.7291262,138.2723 C63.2458262,141.489 62.8659262,145.3896 62.5507262,149.9286 C62.2339262,154.4676 62.0884262,159.8278 62.0884262,165.9639 C62.0884262,168.0168 62.1078262,170.0924 62.1498262,172.2132 C62.1918262,174.3356 62.2339262,176.3416 62.2985262,178.2587 C62.3599262,180.1742 62.4440262,181.9313 62.5297262,183.551 C62.6121262,185.1465 62.6978262,186.4704 62.7608262,187.4968 L62.7608262,187.4968 Z" id="path4"></path>
            </g>
        </g>
    </g>
</svg>