<?xml version="1.0" encoding="UTF-8"?>
<svg width="283px" height="193px" viewBox="0 0 283 193" version="1.1" xmlns="http://www.w3.org/2000/svg" xmlns:xlink="http://www.w3.org/1999/xlink">
    <title>path4</title>
    <g id="Page-1" stroke="none" stroke-width="1" fill="none" fill-rule="evenodd">
        <g id="Logo" transform="translate(-1153, -308)" fill="#028F85" stroke="#028F85" stroke-width="2">
            <path d="M1211.75006,421.531 C1210.98706,422.5042 1210.17236,423.4255 1209.28986,424.2693 C1208.21806,425.2958 1207.08006,426.1396 1205.83866,426.8023 C1204.59556,427.4635 1203.33476,427.8045 1202.00766,427.8045 C1199.88356,427.8045 1198.07146,427.394 1196.57786,426.5728 C1195.10366,425.729 1193.88486,424.8173 1192.93756,423.7909 C1192.28296,425.3653 1191.48436,426.7781 1190.53716,428.0793 C1189.58986,429.3563 1188.56016,430.4733 1187.40276,431.4319 C1186.24546,432.3904 1185.02336,433.1421 1183.71726,433.6901 C1182.43376,434.2154 1181.10826,434.4886 1179.76176,434.4886 C1177.25626,434.4886 1175.11116,433.6901 1173.34116,432.0704 C1171.57436,430.4733 1170.10006,428.3299 1168.92166,425.6385 C1168.27186,424.1158 1167.69476,422.4621 1167.19856,420.6759 C1164.48446,426.7765 1161.07856,434.6276 1160.67766,439.0875 C1160.52896,440.7411 1159.47666,446.3147 1161.95956,447.687 C1167.90816,450.9749 1174.51956,452.2261 1190.44336,455.0112 C1192.40736,455.3556 1194.04166,455.4833 1196.03956,455.7273 C1200.57866,456.2834 1208.15346,456.9817 1212.22696,456.0813 C1212.61976,453.8345 1213.27276,449.8531 1215.38876,447.6402 C1219.45906,443.384 1222.70006,441.3505 1228.36096,441.336 C1242.20596,441.3004 1250.08786,457.339 1239.24466,468.6768 C1233.97976,474.1825 1222.66776,473.7089 1217.24446,468.5217 C1215.45666,466.8114 1214.63876,465.0446 1213.50236,463.3053 C1210.15786,463.4718 1213.50236,463.3053 1210.15786,463.4718 C1208.01926,463.7725 1196.48086,463.0144 1193.96086,462.7088 C1191.66866,462.4292 1189.88896,462.1302 1187.52246,461.7115 L1177.70886,459.4646 C1176.84236,459.2399 1171.60666,457.8772 1165.60466,456.1993 C1157.27986,453.8733 1156.17746,450.5126 1155.05396,448.172 C1154.11646,446.1417 1154.72096,442.6324 1155.20106,440.2384 C1156.63976,433.0774 1160.86526,423.9396 1165.63546,412.9654 C1165.24096,410.4065 1164.92096,407.7572 1164.67196,405.0172 C1164.31316,401.0941 1164.10296,397.1257 1164.01896,393.1104 C1163.95586,389.1193 1163.91386,385.3093 1163.91386,381.6836 C1163.91386,374.7716 1164.10296,368.7955 1164.46026,363.7538 C1164.81746,358.691 1165.32346,354.3799 1165.97486,350.8431 C1166.60696,347.3079 1167.34406,344.4338 1168.18616,342.2209 C1169.02836,340.0095 1169.93196,338.2977 1170.87926,337.0886 C1171.82646,335.8568 1172.77376,335.013 1173.76306,334.5798 C1174.75226,334.1466 1175.72056,333.9187 1176.66786,333.9187 C1178.18246,333.9187 1179.53056,334.3972 1180.70736,335.3784 C1181.86476,336.3596 1182.85566,337.7271 1183.67686,339.4842 C1184.47536,341.2413 1185.08636,343.3847 1185.48726,345.8708 C1185.88656,348.357 1186.09666,351.0952 1186.09666,354.0825 C1186.09666,358.8494 1185.63276,363.7764 1184.68556,368.8634 C1183.73826,373.9504 1182.51946,379.0148 1181.02426,384.0549 C1179.53056,389.1193 1177.84626,394.0916 1175.99376,398.9733 C1174.14286,403.8324 1172.31146,408.4619 1170.50096,412.8426 C1170.75316,415.0086 1171.13306,417.0842 1171.61636,419.0692 C1172.10126,421.0542 1172.75276,422.8323 1173.53186,424.3615 C1174.30936,425.889 1175.21466,427.1208 1176.28956,428.0341 C1177.36286,428.9458 1178.60436,429.4016 1179.99286,429.4016 C1181.40246,429.4016 1182.70856,428.9684 1183.94836,428.102 C1185.19146,427.2355 1186.24546,426.0943 1187.14906,424.7025 C1188.05426,423.2881 1188.77036,421.6927 1189.27466,419.913 C1189.80006,418.1332 1190.05386,416.3082 1190.05386,414.438 C1190.05386,413.1836 1189.94876,411.9292 1189.71756,410.6522 C1189.48646,409.3979 1189.14856,408.2566 1188.66366,407.2528 C1188.18036,406.249 1187.59196,405.4278 1186.89686,404.812 C1186.20176,404.1961 1185.35956,403.8776 1184.37196,403.8776 C1183.63486,403.8776 1183.06586,404.0377 1182.64396,404.3787 C1182.24466,404.7214 1181.92946,405.0868 1181.71926,405.52 C1181.53016,405.9532 1181.40246,406.3638 1181.36206,406.7517 C1181.31846,407.1397 1181.29736,407.4128 1181.29736,407.5502 C1181.29736,408.1661 1181.42346,408.8046 1181.65466,409.4205 C1181.90846,410.0364 1182.39176,410.607 1183.08686,411.0855 C1183.78196,411.6334 1184.13916,412.3625 1184.13916,413.2984 C1184.13916,414.05 1183.90796,414.6659 1183.42466,415.1008 C1182.93976,415.534 1182.41276,415.7619 1181.84536,415.7619 C1181.02426,415.7619 1180.30816,415.4871 1179.65666,414.9634 C1179.02466,414.438 1178.47666,413.7542 1178.01436,412.9331 C1177.57306,412.1119 1177.21576,411.2229 1176.98466,410.2869 C1176.73086,409.3526 1176.60476,408.4846 1176.60476,407.686 C1176.60476,406.3864 1176.81496,405.1999 1177.21576,404.1056 C1177.63606,403.0112 1178.20346,402.0753 1178.91956,401.2994 C1179.63566,400.5235 1180.45686,399.9319 1181.38306,399.497 C1182.30926,399.0638 1183.27596,398.8585 1184.30726,398.8585 C1186.07566,398.8585 1187.61296,399.316 1188.91746,400.205 C1190.19926,401.0941 1191.27426,402.2579 1192.13746,403.7402 C1192.99906,405.2225 1193.65206,406.8875 1194.05296,408.7594 C1194.47326,410.6296 1194.68336,412.5225 1194.68336,414.438 C1194.68336,415.5566 1194.62036,416.6283 1194.49426,417.7 C1194.64136,418.0653 1194.91456,418.5438 1195.29276,419.1144 C1195.65166,419.685 1196.15756,420.2557 1196.76706,420.7794 C1197.37646,421.3047 1198.13456,421.7832 1198.99776,422.1938 C1199.86096,422.5817 1200.85026,422.787 1202.00766,422.787 C1202.99686,422.787 1204.00716,422.3765 1205.05946,421.5553 C1206.11186,420.7341 1207.12216,419.7077 1208.09036,418.4759 C1209.05866,417.2668 1209.94286,415.9445 1210.76406,414.5301 C1211.58356,413.1384 1212.27866,411.8387 1212.80566,410.6296 C1212.99476,410.1964 1213.28896,409.8311 1213.66726,409.5805 C1213.75936,409.5159 1213.85636,409.4593 1213.95656,409.4124 C1214.93616,407.3951 1216.10966,405.6638 1217.47726,404.2187 C1219.15996,402.418 1221.01246,401.0941 1223.05406,400.205 C1225.09566,399.316 1227.05316,398.8585 1228.94766,398.8585 C1230.22956,398.8585 1231.38856,399.0412 1232.46196,399.4291 C1233.53526,399.8171 1234.44046,400.2277 1235.19856,400.6609 C1235.95676,401.1167 1236.54516,401.5273 1236.96536,401.9153 C1237.36626,402.2806 1237.59746,402.4859 1237.63946,402.5311 C1238.08076,403.1017 1238.31356,403.7176 1238.31356,404.3335 C1238.31356,404.9946 1238.08076,405.5879 1237.63946,406.1132 C1237.19656,406.6369 1236.65016,406.8875 1236.03916,406.8875 C1235.38776,406.8875 1234.82036,406.6369 1234.37746,406.1585 C1234.29336,406.0663 1234.10426,405.9079 1233.80846,405.6558 C1233.53526,405.4052 1233.13596,405.132 1232.65106,404.8815 C1232.16776,404.6067 1231.57936,404.3787 1230.88426,404.1735 C1230.21016,403.9682 1229.43106,403.8776 1228.56946,403.8776 C1227.30536,403.8776 1225.95886,404.1961 1224.50566,404.812 C1223.05406,405.4278 1221.74956,406.409 1220.54856,407.7087 C1219.37016,409.0325 1218.38246,410.6749 1217.56126,412.6599 C1216.76116,414.6433 1216.36026,416.9936 1216.36026,419.7077 C1216.36026,420.5515 1216.44596,421.4179 1216.61406,422.2859 C1216.78216,423.1524 1217.07636,423.9509 1217.47726,424.6573 C1217.87646,425.3653 1218.44386,425.9569 1219.13896,426.3918 C1219.83406,426.8476 1220.69726,427.0755 1221.72856,427.0755 C1222.46406,427.0755 1223.32726,426.8023 1224.29546,426.2544 C1225.26376,425.729 1226.18996,424.9078 1227.07426,423.7909 C1227.95686,422.6723 1228.75856,421.2821 1229.47306,419.5703 C1230.18916,417.8827 1230.69346,415.875 1230.98766,413.5716 C1231.05236,412.9557 1231.32556,412.432 1231.78946,411.9971 C1232.23076,411.5639 1232.77716,411.3586 1233.38816,411.3586 C1233.95556,411.3586 1234.46146,411.6108 1234.90276,412.0893 C1235.32306,412.5904 1235.55586,413.161 1235.59786,413.7769 C1235.63986,414.6207 1235.72556,415.8071 1235.85006,417.3347 C1235.97776,418.8639 1236.24926,420.3914 1236.69226,421.9206 C1237.11416,423.4482 1237.76556,424.7494 1238.62876,425.8664 C1239.49036,426.9834 1240.67036,427.5314 1242.20766,427.5314 C1243.19526,427.5314 1244.16356,427.2355 1245.13176,426.6649 C1246.10006,426.0943 1247.04736,425.3184 1247.97356,424.3615 C1248.89976,423.4029 1249.78396,422.3086 1250.62456,421.0768 C1251.46836,419.8677 1252.24586,418.636 1252.93936,417.3816 C1253.63446,416.1272 1254.24546,414.9407 1254.77086,413.7769 C1255.31876,412.613 1255.78116,411.6108 1256.13836,410.7654 C1256.35016,410.2643 1256.64426,409.8763 1257.02416,409.6258 L1257.08726,409.5838 C1257.85346,407.5713 1258.45636,405.638 1258.89766,403.7855 C1259.42136,401.5742 1259.82226,399.6344 1260.09546,397.9695 C1260.36866,396.3045 1260.51736,394.958 1260.55776,393.9784 C1260.60146,392.9972 1260.62246,392.4945 1260.62246,392.4492 C1260.62246,391.7881 1260.85356,391.1949 1261.29486,390.7164 C1261.75886,390.2363 1262.32786,389.9858 1262.97926,389.9858 C1263.58866,389.9858 1264.13666,390.2137 1264.57956,390.6695 C1265.02086,391.1496 1265.25206,391.7428 1265.25206,392.4492 L1265.25206,412.9557 C1266.19926,411.2229 1267.14656,409.511 1268.09376,407.8234 C1269.04106,406.1132 1270.02866,404.6067 1271.08266,403.2844 C1272.13496,401.9379 1273.27136,400.8662 1274.47076,400.045 C1275.67016,399.2012 1277.01666,398.7906 1278.51196,398.7906 C1279.90206,398.7906 1281.18396,399.156 1282.34296,399.8623 C1283.50036,400.5704 1284.46866,401.5499 1285.28816,402.8059 C1286.10936,404.0603 1286.74136,405.5426 1287.16166,407.2528 C1287.60296,408.9647 1287.81466,410.8123 1287.81466,412.773 C1287.81466,416.8562 1287.14066,420.3688 1285.79416,423.2655 C1284.42656,426.1622 1282.76326,428.3525 1280.78466,429.8817 L1281.03846,429.8817 C1283.45666,429.8817 1285.66806,429.2885 1287.66756,428.102 C1289.66716,426.9155 1291.45666,425.4106 1293.05526,423.5629 C1294.67666,421.7153 1296.10716,419.6398 1297.36966,417.3816 C1298.65476,415.1008 1299.77016,412.8878 1300.75936,410.7654 C1300.88876,410.4583 1301.04716,410.1948 1301.24436,409.9782 C1301.35746,409.3316 1301.49486,408.706 1301.66296,408.0966 C1302.16896,406.1811 1302.90446,404.5161 1303.87276,403.0791 C1304.84096,401.6421 1305.99836,400.5235 1307.32386,399.7266 C1308.67036,398.928 1310.14466,398.5401 1311.74336,398.5401 C1312.69056,398.5401 1313.61676,398.7454 1314.54306,399.156 C1315.46926,399.5892 1316.30986,400.1824 1317.04696,400.9809 C1317.78406,401.7552 1318.39346,402.6912 1318.83636,403.8081 C1319.27926,404.9267 1319.51046,406.1811 1319.51046,407.6181 C1319.51046,409.4431 1319.21626,411.1533 1318.64726,412.773 C1318.07986,414.3701 1317.27976,415.8524 1316.26946,417.2442 C1315.25916,418.636 1314.05976,419.8903 1312.66956,421.0542 C1311.25996,422.2164 1309.76636,423.2202 1308.16606,424.064 C1309.02926,425.3653 1310.12366,426.3918 1311.49116,427.166 C1312.85866,427.9419 1314.52206,428.3299 1316.47956,428.3299 C1318.50016,428.3299 1320.33166,427.8045 1321.97236,426.7555 C1323.61466,425.729 1325.10826,424.3615 1326.47586,422.6496 C1327.84496,420.962 1329.04436,419.0692 1330.11776,416.971 C1331.19106,414.8712 1332.15936,412.773 1333.02256,410.6975 C1333.12276,410.4453 1333.25206,410.2174 1333.40726,410.0218 C1333.54466,409.6258 1333.69986,409.0859 1333.86466,408.4167 C1334.11526,407.4807 1334.43206,406.0437 1334.79096,404.0829 C1334.09586,404.0829 1333.37976,404.0603 1332.64266,404.0134 C1331.90716,403.9682 1331.21206,403.8081 1330.58166,403.535 C1329.92856,403.2844 1329.40166,402.8512 1329.00236,402.2806 C1328.60146,401.71 1328.39136,400.8888 1328.39136,399.8623 C1328.39136,399.1107 1328.58046,398.0842 1328.96036,396.783 C1329.35956,395.4833 1329.88656,394.229 1330.53806,392.9746 C1331.19106,391.7202 1331.94916,390.6469 1332.76876,389.7352 C1333.58986,388.8219 1334.41106,388.3661 1335.23226,388.3661 C1336.17946,388.3661 1336.93596,388.754 1337.54706,389.5073 C1338.13546,390.2589 1338.59936,391.1949 1338.93716,392.2892 C1339.25076,393.3625 1339.48356,394.5248 1339.63066,395.7339 C1339.77776,396.943 1339.86346,397.9695 1339.86346,398.8585 C1340.55686,398.8585 1341.23096,398.8585 1341.92446,398.8359 C1342.59846,398.8133 1343.24996,398.7906 1343.86096,398.7906 C1346.19676,398.7906 1347.98616,399.3612 1349.22766,400.4782 C1350.47066,401.5968 1351.08016,403.4218 1351.08016,405.9532 C1351.08016,406.9796 1351.01546,408.0287 1350.89096,409.1473 C1350.76326,410.2643 1350.61616,411.4281 1350.44806,412.5904 C1350.30096,413.7769 1350.15386,414.9407 1350.02776,416.103 C1349.90176,417.2668 1349.83706,418.408 1349.83706,419.525 C1349.83706,421.1221 1350.04876,422.4443 1350.44806,423.4934 C1350.86996,424.5441 1351.39536,425.3879 1352.00636,426.0038 C1352.61576,426.6197 1353.26886,427.0529 1353.96386,427.3034 C1354.65896,427.554 1355.31046,427.6688 1355.87776,427.6688 C1357.64786,427.6688 1359.30956,427.0529 1360.88886,425.7985 C1362.44556,424.5441 1363.87606,423.0376 1365.20156,421.2821 C1366.50606,419.525 1367.68616,417.6548 1368.73846,415.7166 C1369.77626,413.7833 1370.64746,412.0941 1371.33776,410.6248 C1373.54746,405.4812 1376.72706,396.6779 1377.34936,392.2504 C1371.62706,392.2504 1365.86276,389.0676 1361.27036,386.3034 C1355.42516,382.7828 1348.12196,376.1779 1343.95796,370.821 C1343.39056,370.0903 1342.96706,369.7153 1342.38026,368.975 C1338.74806,364.3858 1342.65506,367.6495 1338.39406,361.9482 C1336.78566,359.7983 1335.50376,357.5191 1334.13146,355.1994 C1333.23426,353.6848 1332.32096,352.1508 1331.57736,350.6556 L1329.23516,345.6575 C1326.09106,338.0908 1322.27946,327.2249 1326.43056,319.0828 C1327.44246,317.0994 1328.61116,315.9226 1330.35216,314.6828 C1331.66146,313.7517 1334.52426,312.7155 1336.51406,312.5232 C1338.96956,312.2872 1338.15646,312.7172 1339.27176,311.1201 C1339.80526,310.3555 1340.87696,309.7946 1342.09416,309.7914 L1350.91846,309.7914 C1355.13906,309.7946 1355.68546,317.3774 1349.44586,317.3774 C1346.32286,317.3774 1339.65976,318.3635 1338.67696,314.686 C1334.39166,314.686 1330.14036,316.5207 1328.39296,320.3097 C1325.77106,325.9932 1327.47156,333.8152 1329.46626,339.7962 C1330.69316,343.4688 1332.37106,347.4 1334.26076,350.6653 L1340.29176,360.5402 C1341.12106,361.7833 1341.61566,363.1848 1343.01716,363.6875 C1343.53766,363.8734 1343.86746,363.9009 1344.32816,364.3341 C1345.72636,365.6499 1348.02496,368.9378 1349.75296,370.6577 C1350.56766,371.4675 1350.89906,371.8167 1351.61356,372.7122 C1352.27796,373.5463 1352.82266,373.9423 1353.64386,374.597 C1354.41326,375.2113 1354.89176,375.8546 1355.62406,376.5319 L1359.96746,380.0202 C1361.45136,381.1582 1362.98866,382.1394 1364.66816,383.1513 C1369.95886,386.3342 1376.17096,388.9318 1383.09106,387.713 C1390.77256,386.3584 1397.91736,381.9325 1403.48126,376.7776 C1405.97386,374.4677 1409.10336,371.5597 1411.30006,368.9329 C1412.48016,367.5234 1413.63916,365.8083 1414.96786,364.5248 C1416.64896,362.9003 1416.34836,364.7156 1419.01066,360.7375 C1420.11306,359.0903 1421.02966,357.6807 1422.09486,355.9899 C1427.45346,347.476 1437.58066,326.9032 1429.41746,317.9351 C1429.04736,317.5278 1428.14856,316.8892 1427.63296,316.5369 C1425.73196,315.234 1423.14236,314.686 1420.67406,314.686 C1419.82056,318.3473 1413.33526,317.3774 1410.39326,317.3774 C1403.26626,317.3774 1404.22646,309.7946 1408.92226,309.7914 L1417.74176,309.7914 C1418.86846,309.7946 1419.80276,310.619 1420.31356,311.3739 C1421.32866,312.874 1421.49356,312.313 1423.26686,312.5814 C1425.61716,312.9386 1427.51976,313.6983 1429.14596,314.7798 C1433.98886,318.0014 1434.60476,322.854 1434.62416,328.3451 L1434.62416,328.6765 C1434.60156,340.2035 1425.80626,355.3126 1419.22566,364.3761 C1418.65506,365.1617 1418.81826,364.6056 1418.71806,365.8277 C1418.62276,366.9673 1418.91856,366.3789 1418.41746,367.2405 C1418.41546,367.2421 1417.73846,368.1021 1417.66096,368.1958 C1417.31016,368.6193 1417.25036,368.7018 1416.89796,369.1463 C1416.51646,369.628 1416.33706,369.7622 1415.98946,370.1954 C1413.02646,373.8615 1409.69496,377.2868 1406.06276,380.3371 C1404.77116,381.4217 1403.55716,382.5823 1402.17186,383.5425 C1400.64756,384.5981 1399.39966,385.5437 1397.80746,386.5201 C1396.20546,387.4996 1394.89136,388.13 1393.17786,388.9884 C1391.33506,389.9114 1390.07266,390.4206 1387.97116,391.1237 C1386.55036,391.599 1383.71826,392.2504 1381.99996,392.2504 C1380.78116,397.7432 1377.14736,410.4938 1375.16066,413.6055 C1374.29266,415.2818 1373.30656,417.1197 1372.18956,419.1371 C1370.94816,421.4405 1369.51596,423.5856 1367.91726,425.5932 C1366.29596,427.5993 1364.50816,429.2885 1362.50856,430.6786 C1360.50896,432.0704 1358.32026,432.7558 1355.94246,432.7558 C1354.46826,432.7558 1353.07806,432.4583 1351.75256,431.8425 C1350.42706,431.2266 1349.29066,430.3602 1348.32246,429.2416 C1347.37516,428.102 1346.59606,426.6876 1346.00766,425.0226 C1345.43866,423.3576 1345.14446,421.4648 1345.14446,419.3876 C1345.14446,417.1537 1345.35616,414.9407 1345.77646,412.7278 C1346.17576,410.5148 1346.38586,408.4167 1346.38586,406.409 C1346.38586,405.5652 1346.21776,404.9494 1345.86056,404.5161 C1345.50166,404.0829 1344.74516,403.8776 1343.54576,403.8776 C1342.97676,403.8776 1342.34636,403.8776 1341.67226,403.8776 C1340.99976,403.8776 1340.26266,403.9003 1339.48356,403.9455 C1339.31546,405.1546 1339.10526,406.2716 1338.87256,407.3223 C1338.62036,408.3714 1338.38916,409.2831 1338.15806,410.059 C1337.92526,410.8349 1337.73616,411.4734 1337.56806,411.9519 C1337.39996,412.4546 1337.29486,412.7278 1337.25286,412.773 C1337.20276,412.9024 1337.14776,413.0236 1337.08636,413.1367 C1334.27856,419.7642 1331.22826,424.7527 1327.92906,428.1246 C1324.58296,431.5693 1320.77296,433.3248 1316.54266,433.4169 C1313.82696,433.4169 1311.49116,432.8463 1309.51416,431.7051 C1307.55506,430.5655 1305.93536,429.1058 1304.65186,427.3034 C1303.36676,425.5011 1302.41956,423.4482 1301.81006,421.19 C1301.70346,420.7891 1301.60486,420.3882 1301.51586,419.9873 L1301.20066,420.5515 C1299.72646,423.1524 1298.00166,425.5011 1296.02316,427.5993 C1294.04456,429.699 1291.83486,431.4093 1289.37296,432.7089 C1286.90946,434.0328 1284.17276,434.6939 1281.16296,434.6939 C1278.99686,434.6939 1276.87116,434.3286 1274.80856,433.5769 C1272.76696,432.8463 1270.95496,431.7051 1269.37726,430.1322 C1268.80986,429.6522 1268.30386,429.1284 1267.90466,428.5578 C1267.50376,428.0098 1267.16756,427.4861 1266.91536,427.0076 C1266.83126,426.9155 1266.78766,426.825 1266.78766,426.7328 C1266.55646,426.3449 1266.43046,425.9117 1266.43046,425.4558 C1266.43046,424.8852 1266.61956,424.3388 1266.97836,423.8588 C1267.02046,423.7682 1267.06246,423.723 1267.10446,423.6987 C1267.14656,423.6761 1267.18856,423.6308 1267.23056,423.5856 C1267.63146,423.1976 1268.09376,422.9697 1268.57866,422.9244 L1268.76786,422.9244 C1268.97796,422.9244 1269.12506,422.9471 1269.18816,422.9923 C1269.23016,422.9923 1269.27216,422.9923 1269.29476,423.015 C1269.31416,423.0376 1269.33526,423.0602 1269.37726,423.0602 C1269.50496,423.0602 1269.65046,423.1071 1269.81856,423.1976 C1269.86216,423.2429 1269.90426,423.2655 1269.94626,423.2655 C1270.30346,423.5177 1270.62026,423.8588 1270.87246,424.2693 C1271.14566,424.7947 1271.48186,425.2958 1271.84076,425.729 C1272.17696,426.0717 1272.57626,426.3918 1273.01916,426.6876 C1273.46206,426.9834 1273.98576,427.1208 1274.55476,427.1208 C1275.58606,427.1208 1276.61746,426.8023 1277.64876,426.1396 C1278.68006,425.4784 1279.60626,424.5199 1280.42586,423.2655 C1281.24856,422.0111 1281.90006,420.5062 1282.42696,418.7038 C1282.95396,416.9241 1283.20456,414.9407 1283.20456,412.773 C1283.20456,411.1533 1283.05746,409.7858 1282.74226,408.6446 C1282.42696,407.5276 1282.04716,406.5917 1281.56386,405.8853 C1281.08046,405.1773 1280.57456,404.6535 1280.04756,404.3109 C1279.52226,403.9682 1278.99686,403.8081 1278.51196,403.8081 C1277.39656,403.8081 1276.28116,404.424 1275.14486,405.68 C1274.02946,406.9344 1272.91406,408.5072 1271.79876,410.4243 C1270.68336,412.3398 1269.56636,414.4606 1268.49306,416.7657 C1267.40026,419.0918 1266.30436,421.35 1265.18896,423.5177 C1265.10496,430.7481 1264.99986,437.6359 1264.85276,444.1826 C1264.70406,450.7292 1264.47286,456.7974 1264.11566,462.4082 C1263.75836,468.0432 1263.27506,473.1059 1262.66406,477.645 C1262.05306,482.184 1261.21246,486.0845 1260.13746,489.3239 C1259.06576,492.5407 1257.75966,495.0268 1256.18036,496.7597 C1254.62376,498.4941 1252.70816,499.3606 1250.45646,499.3606 C1249.76136,499.3606 1248.96126,499.2005 1248.05596,498.9047 C1247.15236,498.5846 1246.28916,497.9461 1245.51006,496.9892 C1244.73256,496.0533 1244.07946,494.6841 1243.55416,492.8834 C1243.02716,491.1037 1242.75236,488.7307 1242.75236,485.7435 C1242.75236,481.9561 1243.17426,477.5771 1244.03746,472.5822 C1244.90066,467.5857 1246.12106,462.295 1247.70036,456.7053 C1249.27806,451.1172 1251.17256,445.369 1253.35966,439.4835 C1255.52896,433.6222 1257.92936,427.8967 1260.55776,422.3312 C1260.55776,420.7568 1260.58046,419.2292 1260.60146,417.7 C1260.62246,416.1951 1260.62246,414.7354 1260.62246,413.2984 C1260.40586,413.57 1260.16986,413.7849 1259.91446,413.9482 L1259.44406,415.0086 C1258.91706,416.1272 1258.26566,417.4268 1257.46546,418.9091 C1256.66536,420.3914 1255.73906,421.9206 1254.66736,423.5177 C1253.59246,425.1358 1252.39456,426.597 1251.08846,427.9419 C1249.76296,429.2885 1248.35186,430.3828 1246.83716,431.2492 C1245.29996,432.1157 1243.70126,432.5505 1242.01686,432.5505 C1239.63906,432.5505 1237.61846,431.7293 1235.99716,430.0627 C1234.37746,428.4204 1233.19906,426.3449 1232.46196,423.8588 C1231.05236,426.3918 1229.38896,428.4204 1227.47346,429.9043 C1225.53856,431.3866 1223.60046,432.1399 1221.66386,432.1399 C1220.14926,432.1399 1218.78176,431.8425 1217.53866,431.2492 C1216.29886,430.6334 1215.26586,429.7896 1214.40436,428.6952 C1213.54116,427.6235 1212.86706,426.3449 1212.38376,424.8626 C1212.05556,423.8119 1211.84546,422.7046 1211.75006,421.531 L1211.75006,421.531 Z M1335.35836,398.9959 C1335.35836,398.7001 1335.33736,398.2895 1335.31626,397.7642 C1335.29366,397.2388 1335.25326,396.7377 1335.19026,396.2592 C1335.12716,395.7792 1335.06256,395.3459 1334.95906,394.9806 C1334.85236,394.6395 1334.72626,394.4569 1334.62126,394.4569 C1334.49516,394.4569 1334.34646,394.6169 1334.15726,394.958 C1333.96816,395.3007 1333.75806,395.6886 1333.56886,396.1671 C1333.35876,396.623 1333.16966,397.1257 1332.99986,397.6737 C1332.85446,398.1974 1332.72676,398.6532 1332.64266,398.9959 L1335.35836,398.9959 Z M1306.31516,419.7077 C1307.59706,419.1371 1308.75606,418.408 1309.80836,417.5174 C1310.83966,416.6283 1311.74336,415.6471 1312.48046,414.5754 C1313.21756,413.5037 1313.80596,412.3625 1314.20686,411.2002 C1314.60606,410.0137 1314.81786,408.8273 1314.81786,407.6181 C1314.81786,406.2716 1314.50106,405.2694 1313.89156,404.584 C1313.28056,403.8776 1312.56606,403.535 1311.74336,403.535 C1310.62796,403.535 1309.68066,403.8776 1308.90156,404.5388 C1308.12406,405.1999 1307.47256,406.0906 1306.98766,407.1623 C1306.50436,408.234 1306.14546,409.4205 1305.91436,410.7201 C1305.68156,412.044 1305.57806,413.3437 1305.57806,414.6433 C1305.57806,415.4418 1305.64116,416.2856 1305.78826,417.1763 C1305.93536,418.0653 1306.10346,418.9091 1306.31516,419.7077 L1306.31516,419.7077 Z M1260.43336,434.2154 C1258.43376,439.1198 1256.60226,444.0468 1254.98096,448.9964 C1253.35966,453.946 1251.97106,458.6903 1250.85576,463.2746 C1249.71936,467.8605 1248.83676,472.1716 1248.22576,476.1853 C1247.61466,480.2006 1247.29946,483.7132 1247.29946,486.7473 C1247.29946,487.4989 1247.34156,488.3201 1247.42556,489.2108 C1247.51126,490.0998 1247.67776,490.9436 1247.93156,491.6969 C1248.16266,492.4486 1248.51996,493.0644 1248.98226,493.5898 C1249.42516,494.1151 1250.03616,494.3657 1250.77326,494.3657 C1252.11976,494.3657 1253.29826,493.4297 1254.28586,491.5821 C1255.27676,489.7345 1256.09796,487.2484 1256.77036,484.1011 C1257.46546,480.9765 1258.03286,477.3492 1258.47416,473.266 C1258.91706,469.1828 1259.27596,464.9169 1259.54906,460.47 C1259.82226,456.0215 1260.01306,451.5278 1260.13746,447.0114 C1260.26516,442.495 1260.36866,438.2291 1260.43336,434.2154 L1260.43336,434.2154 Z M1169.32256,404.2882 C1170.73376,400.5235 1172.14336,396.6003 1173.59496,392.4719 C1175.02546,388.3434 1176.30896,384.1471 1177.46636,379.8812 C1178.62536,375.6154 1179.57096,371.2816 1180.30816,366.9253 C1181.04526,362.5673 1181.42346,358.2562 1181.42346,354.0146 C1181.42346,352.4175 1181.34106,350.7299 1181.19236,348.9728 C1181.04526,347.2173 1180.79306,345.6203 1180.43586,344.138 C1180.05596,342.6541 1179.54996,341.4466 1178.91956,340.4654 C1178.28756,339.4842 1177.46636,338.9831 1176.47866,338.9831 C1176.16186,338.9831 1175.74156,339.211 1175.21466,339.6895 C1174.71026,340.1679 1174.16396,340.9891 1173.59496,342.153 C1173.02756,343.3394 1172.43756,344.9818 1171.87016,347.0799 C1171.30116,349.1555 1170.77416,351.8243 1170.29086,355.0637 C1169.80756,358.2804 1169.42766,362.181 1169.11246,366.72 C1168.79566,371.259 1168.65016,376.6192 1168.65016,382.7553 C1168.65016,384.8082 1168.66956,386.8838 1168.71156,389.0046 C1168.75356,391.127 1168.79566,393.133 1168.86026,395.0501 C1168.92166,396.9656 1169.00576,398.7227 1169.09146,400.3424 C1169.17386,401.9379 1169.25956,403.2618 1169.32256,404.2882 L1169.32256,404.2882 Z" id="path4"></path>
        </g>
    </g>
</svg>